<svg width="354" height="110" viewBox="0 0 354 110" fill="none" xmlns="http://www.w3.org/2000/svg">
<path d="M55 3.38929C55 1.51744 53.481 -0.0108795 51.6127 0.104385C41.9256 0.702034 32.5469 3.85474 24.4436 9.26917C15.3989 15.3127 8.34945 23.9025 4.18663 33.9524C0.0238058 44.0023 -1.06538 55.061 1.05681 65.73C3.179 76.3989 8.41724 86.199 16.1091 93.8909C23.801 101.583 33.6011 106.821 44.27 108.943C54.939 111.065 65.9977 109.976 76.0476 105.813C86.0975 101.651 94.6874 94.6011 100.731 85.5564C106.145 77.4531 109.298 68.0744 109.896 58.3873C110.011 56.519 108.483 55 106.611 55C104.739 55 103.234 56.5194 103.102 58.3866C102.515 66.7319 99.7641 74.8021 95.0946 81.7904C89.796 89.7204 82.2648 95.901 73.4535 99.5508C64.6422 103.201 54.9465 104.155 45.5925 102.295C36.2384 100.434 27.6462 95.8416 20.9023 89.0977C14.1584 82.3538 9.56578 73.7616 7.70514 64.4075C5.84451 55.0535 6.79946 45.3578 10.4492 36.5465C14.099 27.7352 20.2796 20.204 28.2096 14.9054C35.1979 10.2359 43.2681 7.4851 51.6134 6.89763C53.4806 6.76618 55 5.26115 55 3.38929Z" fill="#E62C29"/>
<path d="M35.2705 52V48.668H39.1345V38.392H35.8025V35.844C36.7732 35.6573 37.5945 35.4333 38.2665 35.172C38.9385 34.9107 39.5919 34.5933 40.2265 34.22H43.2505V48.668H46.5825V52H35.2705ZM52.8075 39.848C52.8075 40.7813 53.0315 41.444 53.4795 41.836C53.9275 42.228 54.4875 42.424 55.1595 42.424C55.6262 42.424 56.0928 42.2933 56.5595 42.032C57.0448 41.752 57.4648 41.2947 57.8195 40.66C57.6328 39.26 57.2782 38.2987 56.7555 37.776C56.2515 37.2347 55.6822 36.964 55.0475 36.964C54.4502 36.964 53.9275 37.1973 53.4795 37.664C53.0315 38.112 52.8075 38.84 52.8075 39.848ZM54.5155 52.336C53.3395 52.336 52.3128 52.1213 51.4355 51.692C50.5768 51.2627 49.8675 50.768 49.3075 50.208L51.4915 47.744C51.7902 48.08 52.1915 48.3787 52.6955 48.64C53.1995 48.8827 53.7128 49.004 54.2355 49.004C54.9075 49.004 55.5048 48.836 56.0275 48.5C56.5688 48.1453 57.0075 47.5667 57.3435 46.764C57.6795 45.9427 57.8662 44.8413 57.9035 43.46C57.4368 44.0387 56.8582 44.496 56.1675 44.832C55.4955 45.168 54.8888 45.336 54.3475 45.336C53.3395 45.336 52.4342 45.14 51.6315 44.748C50.8475 44.356 50.2222 43.7587 49.7555 42.956C49.2888 42.1347 49.0555 41.0987 49.0555 39.848C49.0555 38.616 49.3262 37.552 49.8675 36.656C50.4088 35.76 51.1275 35.0787 52.0235 34.612C52.9195 34.1267 53.8995 33.884 54.9635 33.884C56.1208 33.884 57.2128 34.192 58.2395 34.808C59.2662 35.4053 60.0968 36.348 60.7315 37.636C61.3848 38.924 61.7115 40.6133 61.7115 42.704C61.7115 44.9067 61.3662 46.7267 60.6755 48.164C60.0035 49.5827 59.1168 50.6373 58.0155 51.328C56.9328 52 55.7662 52.336 54.5155 52.336ZM70.5965 43.796C70.1298 43.796 69.6538 43.936 69.1685 44.216C68.7018 44.4773 68.2818 44.9253 67.9085 45.56C68.0952 46.96 68.4498 47.9307 68.9725 48.472C69.4952 48.9947 70.0645 49.256 70.6805 49.256C71.2965 49.256 71.8192 49.032 72.2485 48.584C72.6965 48.1173 72.9205 47.38 72.9205 46.372C72.9205 45.4387 72.6965 44.776 72.2485 44.384C71.8192 43.992 71.2685 43.796 70.5965 43.796ZM70.7645 52.336C69.6258 52.336 68.5432 52.0373 67.5165 51.44C66.4898 50.824 65.6498 49.872 64.9965 48.584C64.3618 47.2773 64.0445 45.588 64.0445 43.516C64.0445 41.2947 64.3805 39.4747 65.0525 38.056C65.7432 36.6373 66.6298 35.592 67.7125 34.92C68.8138 34.2293 69.9898 33.884 71.2405 33.884C72.4165 33.884 73.4338 34.0987 74.2925 34.528C75.1512 34.9387 75.8605 35.4333 76.4205 36.012L74.2645 38.476C73.9658 38.14 73.5552 37.8507 73.0325 37.608C72.5285 37.3467 72.0152 37.216 71.4925 37.216C70.8392 37.216 70.2418 37.3933 69.7005 37.748C69.1592 38.084 68.7205 38.6627 68.3845 39.484C68.0672 40.2867 67.8805 41.3787 67.8245 42.76C68.2912 42.1627 68.8605 41.7053 69.5325 41.388C70.2232 41.052 70.8392 40.884 71.3805 40.884C72.9112 40.884 74.1712 41.332 75.1605 42.228C76.1685 43.1053 76.6725 44.4867 76.6725 46.372C76.6725 47.604 76.4018 48.668 75.8605 49.564C75.3192 50.4413 74.6005 51.1227 73.7045 51.608C72.8272 52.0933 71.8472 52.336 70.7645 52.336ZM41.7656 72H38.1747V60.3636H41.9247C43.0535 60.3636 44.0194 60.5966 44.8224 61.0625C45.6255 61.5246 46.241 62.1894 46.669 63.0568C47.0971 63.9205 47.3111 64.9545 47.3111 66.1591C47.3111 67.3712 47.0952 68.4148 46.6634 69.2898C46.2315 70.161 45.6027 70.8314 44.777 71.3011C43.9512 71.767 42.9474 72 41.7656 72ZM39.5838 70.75H41.6747C42.6368 70.75 43.4342 70.5644 44.0668 70.1932C44.6993 69.822 45.1709 69.2936 45.4815 68.608C45.7921 67.9223 45.9474 67.1061 45.9474 66.1591C45.9474 65.2197 45.794 64.411 45.4872 63.733C45.1804 63.0511 44.7221 62.5284 44.1122 62.1648C43.5024 61.7973 42.7429 61.6136 41.8338 61.6136H39.5838V70.75ZM52.0611 72.2045C51.508 72.2045 51.0062 72.1004 50.5554 71.892C50.1046 71.6799 49.7467 71.375 49.4815 70.9773C49.2164 70.5758 49.0838 70.0909 49.0838 69.5227C49.0838 69.0227 49.1823 68.6174 49.3793 68.3068C49.5762 67.9924 49.8395 67.7462 50.169 67.5682C50.4986 67.3902 50.8622 67.2576 51.2599 67.1705C51.6615 67.0795 52.0649 67.0076 52.4702 66.9545C53.0005 66.8864 53.4304 66.8352 53.7599 66.8011C54.0933 66.7633 54.3357 66.7008 54.4872 66.6136C54.6425 66.5265 54.7202 66.375 54.7202 66.1591V66.1136C54.7202 65.553 54.5668 65.1174 54.2599 64.8068C53.9569 64.4962 53.4967 64.3409 52.8793 64.3409C52.2391 64.3409 51.7372 64.4811 51.3736 64.7614C51.0099 65.0417 50.7543 65.3409 50.6065 65.6591L49.3338 65.2045C49.5611 64.6742 49.8641 64.2614 50.2429 63.9659C50.6255 63.6667 51.0421 63.4583 51.4929 63.3409C51.9474 63.2197 52.3944 63.1591 52.8338 63.1591C53.1141 63.1591 53.4361 63.1932 53.7997 63.2614C54.1671 63.3258 54.5213 63.4602 54.8622 63.6648C55.2069 63.8693 55.4929 64.178 55.7202 64.5909C55.9474 65.0038 56.0611 65.5568 56.0611 66.25V72H54.7202V70.8182H54.652C54.5611 71.0076 54.4096 71.2102 54.1974 71.4261C53.9853 71.642 53.7031 71.8258 53.3509 71.9773C52.9986 72.1288 52.5687 72.2045 52.0611 72.2045ZM52.2656 71C52.7959 71 53.2429 70.8958 53.6065 70.6875C53.974 70.4792 54.2505 70.2102 54.4361 69.8807C54.6255 69.5511 54.7202 69.2045 54.7202 68.8409V67.6136C54.6634 67.6818 54.5384 67.7443 54.3452 67.8011C54.1558 67.8542 53.9361 67.9015 53.6861 67.9432C53.4399 67.9811 53.1993 68.0152 52.9645 68.0455C52.7334 68.072 52.5459 68.0947 52.402 68.1136C52.0535 68.1591 51.7277 68.233 51.4247 68.3352C51.1255 68.4337 50.883 68.5833 50.6974 68.7841C50.5156 68.9811 50.4247 69.25 50.4247 69.5909C50.4247 70.0568 50.5971 70.4091 50.9418 70.6477C51.2902 70.8826 51.7315 71 52.2656 71ZM59.0597 75.2727C58.8324 75.2727 58.6297 75.2538 58.4517 75.2159C58.2737 75.1818 58.1506 75.1477 58.0824 75.1136L58.4233 73.9318C58.7491 74.0152 59.0369 74.0455 59.2869 74.0227C59.5369 74 59.7585 73.8883 59.9517 73.6875C60.1487 73.4905 60.3286 73.1705 60.4915 72.7273L60.7415 72.0455L57.5142 63.2727H58.9688L61.3778 70.2273H61.4688L63.8778 63.2727H65.3324L61.6278 73.2727C61.4612 73.7235 61.2547 74.0966 61.0085 74.392C60.7623 74.6913 60.4763 74.9129 60.1506 75.0568C59.8286 75.2008 59.465 75.2727 59.0597 75.2727ZM73.2841 65.2273L72.0795 65.5682C72.0038 65.3674 71.892 65.1723 71.7443 64.983C71.6004 64.7898 71.4034 64.6307 71.1534 64.5057C70.9034 64.3807 70.5833 64.3182 70.1932 64.3182C69.6591 64.3182 69.214 64.4413 68.858 64.6875C68.5057 64.9299 68.3295 65.2386 68.3295 65.6136C68.3295 65.947 68.4508 66.2102 68.6932 66.4034C68.9356 66.5966 69.3144 66.7576 69.8295 66.8864L71.125 67.2045C71.9053 67.3939 72.4867 67.6837 72.8693 68.0739C73.2519 68.4602 73.4432 68.9583 73.4432 69.5682C73.4432 70.0682 73.2992 70.5152 73.0114 70.9091C72.7273 71.303 72.3295 71.6136 71.8182 71.8409C71.3068 72.0682 70.7121 72.1818 70.0341 72.1818C69.1439 72.1818 68.4072 71.9886 67.8239 71.6023C67.2405 71.2159 66.8712 70.6515 66.7159 69.9091L67.9886 69.5909C68.1098 70.0606 68.339 70.4129 68.6761 70.6477C69.017 70.8826 69.4621 71 70.0114 71C70.6364 71 71.1326 70.8674 71.5 70.6023C71.8712 70.3333 72.0568 70.0114 72.0568 69.6364C72.0568 69.3333 71.9508 69.0795 71.7386 68.875C71.5265 68.6667 71.2008 68.5114 70.7614 68.4091L69.3068 68.0682C68.5076 67.8788 67.9205 67.5852 67.5455 67.1875C67.1742 66.786 66.9886 66.2841 66.9886 65.6818C66.9886 65.1894 67.1269 64.7538 67.4034 64.375C67.6837 63.9962 68.0644 63.6989 68.5455 63.483C69.0303 63.267 69.5795 63.1591 70.1932 63.1591C71.0568 63.1591 71.7348 63.3485 72.2273 63.7273C72.7235 64.1061 73.0758 64.6061 73.2841 65.2273Z" fill="#121212"/>
<path d="M185 7.1428C185 5.40707 183.591 3.98991 181.859 4.09676C170.957 4.76923 160.527 8.92835 152.133 16.0031C143.739 23.0779 137.873 32.6526 135.364 43.2832C134.965 44.9725 136.124 46.6007 137.834 46.8947C139.545 47.1887 141.159 46.0364 141.572 44.3507C143.821 35.1809 148.923 26.9285 156.184 20.8093C163.444 14.6902 172.441 11.0588 181.86 10.396C183.591 10.2741 185 8.87852 185 7.1428Z" fill="#31AC59"/>
<path d="M172.667 52V48.668H176.531V38.392H173.199V35.844C174.17 35.6573 174.991 35.4333 175.663 35.172C176.335 34.9107 176.988 34.5933 177.623 34.22H180.647V48.668H183.979V52H172.667ZM192.892 52.336C190.988 52.336 189.448 51.5427 188.272 49.956C187.115 48.3693 186.536 46.064 186.536 43.04C186.536 40.016 187.115 37.7387 188.272 36.208C189.448 34.6587 190.988 33.884 192.892 33.884C194.796 33.884 196.327 34.6587 197.484 36.208C198.66 37.7387 199.248 40.016 199.248 43.04C199.248 46.064 198.66 48.3693 197.484 49.956C196.327 51.5427 194.796 52.336 192.892 52.336ZM192.892 49.144C193.359 49.144 193.779 48.976 194.152 48.64C194.525 48.2853 194.815 47.6693 195.02 46.792C195.244 45.9147 195.356 44.664 195.356 43.04C195.356 41.416 195.244 40.1747 195.02 39.316C194.815 38.4573 194.525 37.8693 194.152 37.552C193.779 37.2347 193.359 37.076 192.892 37.076C192.444 37.076 192.033 37.2347 191.66 37.552C191.287 37.8693 190.988 38.4573 190.764 39.316C190.54 40.1747 190.428 41.416 190.428 43.04C190.428 44.664 190.54 45.9147 190.764 46.792C190.988 47.6693 191.287 48.2853 191.66 48.64C192.033 48.976 192.444 49.144 192.892 49.144ZM156.87 60.3636H158.552L162.506 70.0227H162.643L166.597 60.3636H168.279V72H166.961V63.1591H166.847L163.211 72H161.938L158.302 63.1591H158.188V72H156.87V60.3636ZM170.923 72V63.2727H172.263V72H170.923ZM171.604 61.8182C171.343 61.8182 171.118 61.7292 170.928 61.5511C170.743 61.3731 170.65 61.1591 170.65 60.9091C170.65 60.6591 170.743 60.4451 170.928 60.267C171.118 60.089 171.343 60 171.604 60C171.866 60 172.089 60.089 172.275 60.267C172.464 60.4451 172.559 60.6591 172.559 60.9091C172.559 61.1591 172.464 61.3731 172.275 61.5511C172.089 61.7292 171.866 61.8182 171.604 61.8182ZM176.06 66.75V72H174.719V63.2727H176.015V64.6364H176.129C176.333 64.1932 176.644 63.8371 177.06 63.5682C177.477 63.2955 178.015 63.1591 178.674 63.1591C179.265 63.1591 179.782 63.2803 180.225 63.5227C180.668 63.7614 181.013 64.125 181.259 64.6136C181.505 65.0985 181.629 65.7121 181.629 66.4545V72H180.288V66.5455C180.288 65.8598 180.11 65.3258 179.754 64.9432C179.397 64.5568 178.909 64.3636 178.288 64.3636C177.86 64.3636 177.477 64.4564 177.14 64.642C176.807 64.8277 176.543 65.0985 176.35 65.4545C176.157 65.8106 176.06 66.2424 176.06 66.75ZM189.579 68.4318V63.2727H190.92V72H189.579V70.5227H189.488C189.283 70.9659 188.965 71.3428 188.533 71.6534C188.102 71.9602 187.556 72.1136 186.897 72.1136C186.352 72.1136 185.867 71.9943 185.442 71.7557C185.018 71.5133 184.685 71.1496 184.442 70.6648C184.2 70.1761 184.079 69.5606 184.079 68.8182V63.2727H185.42V68.7273C185.42 69.3636 185.598 69.8712 185.954 70.25C186.314 70.6288 186.772 70.8182 187.329 70.8182C187.662 70.8182 188.001 70.733 188.346 70.5625C188.694 70.392 188.986 70.1307 189.221 69.7784C189.46 69.4261 189.579 68.9773 189.579 68.4318ZM197.171 63.2727V64.4091H192.648V63.2727H197.171ZM193.967 61.1818H195.308V69.5C195.308 69.8788 195.362 70.1629 195.472 70.3523C195.586 70.5379 195.73 70.6629 195.904 70.7273C196.082 70.7879 196.27 70.8182 196.467 70.8182C196.614 70.8182 196.736 70.8106 196.83 70.7955C196.925 70.7765 197.001 70.7614 197.058 70.75L197.33 71.9545C197.239 71.9886 197.112 72.0227 196.95 72.0568C196.787 72.0947 196.58 72.1136 196.33 72.1136C195.951 72.1136 195.58 72.0322 195.217 71.8693C194.857 71.7064 194.558 71.4583 194.319 71.125C194.084 70.7917 193.967 70.3712 193.967 69.8636V61.1818ZM202.754 72.1818C201.913 72.1818 201.187 71.9962 200.577 71.625C199.971 71.25 199.504 70.7273 199.174 70.0568C198.848 69.3826 198.685 68.5985 198.685 67.7045C198.685 66.8106 198.848 66.0227 199.174 65.3409C199.504 64.6553 199.962 64.1212 200.549 63.7386C201.14 63.3523 201.829 63.1591 202.617 63.1591C203.072 63.1591 203.521 63.2348 203.964 63.3864C204.407 63.5379 204.81 63.7841 205.174 64.125C205.538 64.4621 205.827 64.9091 206.043 65.4659C206.259 66.0227 206.367 66.7083 206.367 67.5227V68.0909H199.64V66.9318H205.004C205.004 66.4394 204.905 66 204.708 65.6136C204.515 65.2273 204.238 64.9223 203.879 64.6989C203.522 64.4754 203.102 64.3636 202.617 64.3636C202.083 64.3636 201.621 64.4962 201.231 64.7614C200.844 65.0227 200.547 65.3636 200.339 65.7841C200.13 66.2045 200.026 66.6553 200.026 67.1364V67.9091C200.026 68.5682 200.14 69.1269 200.367 69.5852C200.598 70.0398 200.918 70.3864 201.327 70.625C201.737 70.8598 202.212 70.9773 202.754 70.9773C203.106 70.9773 203.424 70.928 203.708 70.8295C203.996 70.7273 204.244 70.5758 204.452 70.375C204.661 70.1705 204.822 69.9167 204.935 69.6136L206.231 69.9773C206.094 70.4167 205.865 70.803 205.543 71.1364C205.221 71.4659 204.824 71.7235 204.35 71.9091C203.877 72.0909 203.344 72.1818 202.754 72.1818ZM214.589 65.2273L213.384 65.5682C213.308 65.3674 213.197 65.1723 213.049 64.983C212.905 64.7898 212.708 64.6307 212.458 64.5057C212.208 64.3807 211.888 64.3182 211.498 64.3182C210.964 64.3182 210.519 64.4413 210.163 64.6875C209.81 64.9299 209.634 65.2386 209.634 65.6136C209.634 65.947 209.755 66.2102 209.998 66.4034C210.24 66.5966 210.619 66.7576 211.134 66.8864L212.43 67.2045C213.21 67.3939 213.791 67.6837 214.174 68.0739C214.557 68.4602 214.748 68.9583 214.748 69.5682C214.748 70.0682 214.604 70.5152 214.316 70.9091C214.032 71.303 213.634 71.6136 213.123 71.8409C212.612 72.0682 212.017 72.1818 211.339 72.1818C210.449 72.1818 209.712 71.9886 209.129 71.6023C208.545 71.2159 208.176 70.6515 208.021 69.9091L209.293 69.5909C209.415 70.0606 209.644 70.4129 209.981 70.6477C210.322 70.8826 210.767 71 211.316 71C211.941 71 212.437 70.8674 212.805 70.6023C213.176 70.3333 213.362 70.0114 213.362 69.6364C213.362 69.3333 213.255 69.0795 213.043 68.875C212.831 68.6667 212.505 68.5114 212.066 68.4091L210.612 68.0682C209.812 67.8788 209.225 67.5852 208.85 67.1875C208.479 66.786 208.293 66.2841 208.293 65.6818C208.293 65.1894 208.432 64.7538 208.708 64.375C208.988 63.9962 209.369 63.6989 209.85 63.483C210.335 63.267 210.884 63.1591 211.498 63.1591C212.362 63.1591 213.04 63.3485 213.532 63.7273C214.028 64.1061 214.38 64.6061 214.589 65.2273Z" fill="#121212"/>
<path d="M307 10.8963C307 9.29672 305.702 7.9907 304.105 8.0892C297.452 8.49973 290.95 10.3219 285.037 13.4474C278.269 17.0248 272.477 22.2013 268.165 28.5269C263.853 34.8525 261.151 42.1356 260.295 49.743C259.547 56.3894 260.227 63.1075 262.277 69.4508C262.769 70.9729 264.459 71.7037 265.947 71.1191C267.436 70.5345 268.159 68.8559 267.68 67.3296C265.968 61.8684 265.409 56.0994 266.051 50.3909C266.802 43.7211 269.171 37.3356 272.951 31.7896C276.732 26.2437 281.81 21.7051 287.744 18.5686C292.822 15.8842 298.397 14.2963 304.106 13.8943C305.702 13.782 307 12.4959 307 10.8963Z" fill="#F4981F"/>
<path d="M294.167 54V50.668H298.031V40.392H294.699V37.844C295.67 37.6573 296.491 37.4333 297.163 37.172C297.835 36.9107 298.488 36.5933 299.123 36.22H302.147V50.668H305.479V54H294.167ZM313.916 54.336C312.46 54.336 311.228 54.0933 310.22 53.608C309.212 53.1227 308.353 52.5347 307.644 51.844L309.492 49.24C310.033 49.7253 310.621 50.1453 311.256 50.5C311.891 50.836 312.581 51.004 313.328 51.004C314.243 51.004 314.971 50.7707 315.512 50.304C316.053 49.8373 316.324 49.1467 316.324 48.232C316.324 47.336 316.063 46.6547 315.54 46.188C315.017 45.7213 314.345 45.488 313.524 45.488C313.001 45.488 312.563 45.5533 312.208 45.684C311.872 45.8147 311.433 46.048 310.892 46.384L309.044 45.208L309.548 36.22H319.628V39.692H313.104L312.796 43.024C313.412 42.744 314.075 42.604 314.784 42.604C315.811 42.604 316.744 42.8 317.584 43.192C318.443 43.584 319.133 44.1907 319.656 45.012C320.179 45.8147 320.44 46.8507 320.44 48.12C320.44 49.4267 320.132 50.5467 319.516 51.48C318.919 52.4133 318.125 53.1227 317.136 53.608C316.147 54.0933 315.073 54.336 313.916 54.336ZM281.945 65.2727C281.876 64.697 281.6 64.25 281.115 63.9318C280.63 63.6136 280.036 63.4545 279.331 63.4545C278.816 63.4545 278.365 63.5379 277.979 63.7045C277.596 63.8712 277.297 64.1004 277.081 64.392C276.869 64.6837 276.763 65.0152 276.763 65.3864C276.763 65.697 276.837 65.964 276.984 66.1875C277.136 66.4072 277.329 66.5909 277.564 66.7386C277.799 66.8826 278.045 67.0019 278.303 67.0966C278.56 67.1875 278.797 67.2614 279.013 67.3182L280.195 67.6364C280.498 67.7159 280.835 67.8258 281.206 67.9659C281.581 68.1061 281.939 68.2973 282.28 68.5398C282.625 68.7784 282.909 69.0852 283.132 69.4602C283.356 69.8352 283.467 70.2955 283.467 70.8409C283.467 71.4697 283.303 72.0379 282.973 72.5455C282.647 73.053 282.17 73.4564 281.541 73.7557C280.916 74.0549 280.157 74.2045 279.263 74.2045C278.429 74.2045 277.708 74.0701 277.098 73.8011C276.492 73.5322 276.015 73.1572 275.666 72.6761C275.321 72.1951 275.126 71.6364 275.081 71H276.536C276.573 71.4394 276.721 71.803 276.979 72.0909C277.24 72.375 277.57 72.5871 277.967 72.7273C278.369 72.8636 278.801 72.9318 279.263 72.9318C279.801 72.9318 280.284 72.8447 280.712 72.6705C281.14 72.4924 281.479 72.2462 281.729 71.9318C281.979 71.6136 282.104 71.2424 282.104 70.8182C282.104 70.4318 281.996 70.1174 281.78 69.875C281.564 69.6326 281.28 69.4356 280.928 69.2841C280.575 69.1326 280.195 69 279.786 68.8864L278.354 68.4773C277.445 68.2159 276.725 67.8428 276.195 67.358C275.664 66.8731 275.399 66.2386 275.399 65.4545C275.399 64.803 275.575 64.2348 275.928 63.75C276.284 63.2614 276.761 62.8826 277.359 62.6136C277.962 62.3409 278.634 62.2045 279.376 62.2045C280.126 62.2045 280.793 62.339 281.376 62.608C281.96 62.8731 282.422 63.2367 282.763 63.6989C283.107 64.161 283.289 64.6856 283.308 65.2727H281.945ZM289.261 74.1818C288.42 74.1818 287.695 73.9962 287.085 73.625C286.479 73.25 286.011 72.7273 285.682 72.0568C285.356 71.3826 285.193 70.5985 285.193 69.7045C285.193 68.8106 285.356 68.0227 285.682 67.3409C286.011 66.6553 286.47 66.1212 287.057 65.7386C287.648 65.3523 288.337 65.1591 289.125 65.1591C289.58 65.1591 290.028 65.2348 290.472 65.3864C290.915 65.5379 291.318 65.7841 291.682 66.125C292.045 66.4621 292.335 66.9091 292.551 67.4659C292.767 68.0227 292.875 68.7083 292.875 69.5227V70.0909H286.148V68.9318H291.511C291.511 68.4394 291.413 68 291.216 67.6136C291.023 67.2273 290.746 66.9223 290.386 66.6989C290.03 66.4754 289.61 66.3636 289.125 66.3636C288.591 66.3636 288.129 66.4962 287.739 66.7614C287.352 67.0227 287.055 67.3636 286.847 67.7841C286.638 68.2045 286.534 68.6553 286.534 69.1364V69.9091C286.534 70.5682 286.648 71.1269 286.875 71.5852C287.106 72.0398 287.426 72.3864 287.835 72.625C288.244 72.8598 288.72 72.9773 289.261 72.9773C289.614 72.9773 289.932 72.928 290.216 72.8295C290.504 72.7273 290.752 72.5758 290.96 72.375C291.169 72.1705 291.33 71.9167 291.443 71.6136L292.739 71.9773C292.602 72.4167 292.373 72.803 292.051 73.1364C291.729 73.4659 291.331 73.7235 290.858 73.9091C290.384 74.0909 289.852 74.1818 289.261 74.1818ZM298.46 74.1818C297.642 74.1818 296.938 73.9886 296.347 73.6023C295.756 73.2159 295.301 72.6837 294.983 72.0057C294.665 71.3277 294.506 70.553 294.506 69.6818C294.506 68.7955 294.669 68.0133 294.994 67.3352C295.324 66.6534 295.782 66.1212 296.369 65.7386C296.96 65.3523 297.65 65.1591 298.438 65.1591C299.051 65.1591 299.604 65.2727 300.097 65.5C300.589 65.7273 300.992 66.0455 301.307 66.4545C301.621 66.8636 301.816 67.3409 301.892 67.8864H300.551C300.449 67.4886 300.222 67.1364 299.869 66.8295C299.521 66.5189 299.051 66.3636 298.46 66.3636C297.938 66.3636 297.479 66.5 297.085 66.7727C296.695 67.0417 296.39 67.4223 296.17 67.9148C295.955 68.4034 295.847 68.9773 295.847 69.6364C295.847 70.3106 295.953 70.8977 296.165 71.3977C296.381 71.8977 296.684 72.286 297.074 72.5625C297.468 72.839 297.93 72.9773 298.46 72.9773C298.809 72.9773 299.125 72.9167 299.409 72.7955C299.693 72.6742 299.934 72.5 300.131 72.2727C300.328 72.0455 300.468 71.7727 300.551 71.4545H301.892C301.816 71.9697 301.629 72.4337 301.33 72.8466C301.034 73.2557 300.642 73.5814 300.153 73.8239C299.669 74.0625 299.104 74.1818 298.46 74.1818ZM307.398 74.1818C306.61 74.1818 305.919 73.9943 305.324 73.6193C304.733 73.2443 304.271 72.7197 303.938 72.0455C303.608 71.3712 303.443 70.5833 303.443 69.6818C303.443 68.7727 303.608 67.9792 303.938 67.3011C304.271 66.6231 304.733 66.0966 305.324 65.7216C305.919 65.3466 306.61 65.1591 307.398 65.1591C308.186 65.1591 308.875 65.3466 309.466 65.7216C310.061 66.0966 310.523 66.6231 310.852 67.3011C311.186 67.9792 311.352 68.7727 311.352 69.6818C311.352 70.5833 311.186 71.3712 310.852 72.0455C310.523 72.7197 310.061 73.2443 309.466 73.6193C308.875 73.9943 308.186 74.1818 307.398 74.1818ZM307.398 72.9773C307.996 72.9773 308.489 72.8239 308.875 72.517C309.261 72.2102 309.547 71.8068 309.733 71.3068C309.919 70.8068 310.011 70.2652 310.011 69.6818C310.011 69.0985 309.919 68.5549 309.733 68.0511C309.547 67.5473 309.261 67.1402 308.875 66.8295C308.489 66.5189 307.996 66.3636 307.398 66.3636C306.799 66.3636 306.307 66.5189 305.92 66.8295C305.534 67.1402 305.248 67.5473 305.062 68.0511C304.877 68.5549 304.784 69.0985 304.784 69.6818C304.784 70.2652 304.877 70.8068 305.062 71.3068C305.248 71.8068 305.534 72.2102 305.92 72.517C306.307 72.8239 306.799 72.9773 307.398 72.9773ZM314.74 68.75V74H313.399V65.2727H314.695V66.6364H314.808C315.013 66.1932 315.323 65.8371 315.74 65.5682C316.157 65.2955 316.695 65.1591 317.354 65.1591C317.945 65.1591 318.462 65.2803 318.905 65.5227C319.348 65.7614 319.693 66.125 319.939 66.6136C320.185 67.0985 320.308 67.7121 320.308 68.4545V74H318.967V68.5455C318.967 67.8598 318.789 67.3258 318.433 66.9432C318.077 66.5568 317.589 66.3636 316.967 66.3636C316.539 66.3636 316.157 66.4564 315.82 66.642C315.486 66.8277 315.223 67.0985 315.03 67.4545C314.837 67.8106 314.74 68.2424 314.74 68.75ZM326.054 74.1818C325.327 74.1818 324.685 73.9981 324.128 73.6307C323.571 73.2595 323.135 72.7367 322.821 72.0625C322.507 71.3845 322.349 70.5833 322.349 69.6591C322.349 68.7424 322.507 67.947 322.821 67.2727C323.135 66.5985 323.573 66.0777 324.134 65.7102C324.694 65.3428 325.342 65.1591 326.077 65.1591C326.645 65.1591 327.094 65.2538 327.423 65.4432C327.757 65.6288 328.01 65.8409 328.185 66.0795C328.363 66.3144 328.501 66.5076 328.599 66.6591H328.713V62.3636H330.054V74H328.759V72.6591H328.599C328.501 72.8182 328.361 73.0189 328.179 73.2614C327.997 73.5 327.738 73.714 327.401 73.9034C327.063 74.089 326.615 74.1818 326.054 74.1818ZM326.236 72.9773C326.774 72.9773 327.228 72.8371 327.599 72.5568C327.971 72.2727 328.253 71.8807 328.446 71.3807C328.639 70.8769 328.736 70.2955 328.736 69.6364C328.736 68.9848 328.641 68.4148 328.452 67.9261C328.262 67.4337 327.982 67.0511 327.611 66.7784C327.24 66.5019 326.781 66.3636 326.236 66.3636C325.668 66.3636 325.194 66.5095 324.815 66.8011C324.44 67.089 324.158 67.4811 323.969 67.9773C323.783 68.4697 323.69 69.0227 323.69 69.6364C323.69 70.2576 323.785 70.822 323.974 71.3295C324.168 71.8333 324.452 72.2348 324.827 72.5341C325.205 72.8295 325.675 72.9773 326.236 72.9773ZM338.878 67.2273L337.673 67.5682C337.598 67.3674 337.486 67.1723 337.338 66.983C337.194 66.7898 336.997 66.6307 336.747 66.5057C336.497 66.3807 336.177 66.3182 335.787 66.3182C335.253 66.3182 334.808 66.4413 334.452 66.6875C334.099 66.9299 333.923 67.2386 333.923 67.6136C333.923 67.947 334.045 68.2102 334.287 68.4034C334.529 68.5966 334.908 68.7576 335.423 68.8864L336.719 69.2045C337.499 69.3939 338.08 69.6837 338.463 70.0739C338.846 70.4602 339.037 70.9583 339.037 71.5682C339.037 72.0682 338.893 72.5152 338.605 72.9091C338.321 73.303 337.923 73.6136 337.412 73.8409C336.901 74.0682 336.306 74.1818 335.628 74.1818C334.738 74.1818 334.001 73.9886 333.418 73.6023C332.834 73.2159 332.465 72.6515 332.31 71.9091L333.582 71.5909C333.704 72.0606 333.933 72.4129 334.27 72.6477C334.611 72.8826 335.056 73 335.605 73C336.23 73 336.726 72.8674 337.094 72.6023C337.465 72.3333 337.651 72.0114 337.651 71.6364C337.651 71.3333 337.545 71.0795 337.332 70.875C337.12 70.6667 336.795 70.5114 336.355 70.4091L334.901 70.0682C334.101 69.8788 333.514 69.5852 333.139 69.1875C332.768 68.786 332.582 68.2841 332.582 67.6818C332.582 67.1894 332.721 66.7538 332.997 66.375C333.277 65.9962 333.658 65.6989 334.139 65.483C334.624 65.267 335.173 65.1591 335.787 65.1591C336.651 65.1591 337.329 65.3485 337.821 65.7273C338.317 66.1061 338.67 66.6061 338.878 67.2273Z" fill="#121212"/>
</svg>
