<svg width="110" height="30" viewBox="0 0 110 30" fill="none" xmlns="http://www.w3.org/2000/svg">
<rect width="110" height="30" rx="15" fill="#CCCCCC" fill-opacity="0.7"/>
<rect x="2" y="2" width="63" height="26" rx="13" fill="#F4F4F4"/>
<path d="M12.75 19H10.0568V10.2727H12.8693C13.7159 10.2727 14.4403 10.4474 15.0426 10.7969C15.6449 11.1435 16.1065 11.642 16.4276 12.2926C16.7486 12.9403 16.9091 13.7159 16.9091 14.6193C16.9091 15.5284 16.7472 16.3111 16.4233 16.9673C16.0994 17.6207 15.6278 18.1236 15.0085 18.4759C14.3892 18.8253 13.6364 19 12.75 19ZM11.1136 18.0625H12.6818C13.4034 18.0625 14.0014 17.9233 14.4759 17.6449C14.9503 17.3665 15.304 16.9702 15.5369 16.456C15.7699 15.9418 15.8864 15.3295 15.8864 14.6193C15.8864 13.9148 15.7713 13.3082 15.5412 12.7997C15.3111 12.2884 14.9673 11.8963 14.5099 11.6236C14.0526 11.348 13.483 11.2102 12.8011 11.2102H11.1136V18.0625ZM20.4716 19.1534C20.0568 19.1534 19.6804 19.0753 19.3423 18.919C19.0043 18.7599 18.7358 18.5312 18.5369 18.233C18.3381 17.9318 18.2386 17.5682 18.2386 17.142C18.2386 16.767 18.3125 16.4631 18.4602 16.2301C18.608 15.9943 18.8054 15.8097 19.0526 15.6761C19.2997 15.5426 19.5724 15.4432 19.8707 15.3778C20.1719 15.3097 20.4744 15.2557 20.7784 15.2159C21.1761 15.1648 21.4986 15.1264 21.7457 15.1009C21.9957 15.0724 22.1776 15.0256 22.2912 14.9602C22.4077 14.8949 22.4659 14.7812 22.4659 14.6193V14.5852C22.4659 14.1648 22.3509 13.8381 22.1207 13.6051C21.8935 13.3722 21.5483 13.2557 21.0852 13.2557C20.6051 13.2557 20.2287 13.3608 19.956 13.571C19.6832 13.7812 19.4915 14.0057 19.3807 14.2443L18.4261 13.9034C18.5966 13.5057 18.8239 13.196 19.108 12.9744C19.3949 12.75 19.7074 12.5937 20.0455 12.5057C20.3864 12.4148 20.7216 12.3693 21.0511 12.3693C21.2614 12.3693 21.5028 12.3949 21.7756 12.446C22.0511 12.4943 22.3168 12.5952 22.5724 12.7486C22.831 12.902 23.0455 13.1335 23.2159 13.4432C23.3864 13.7528 23.4716 14.1676 23.4716 14.6875V19H22.4659V18.1136H22.4148C22.3466 18.2557 22.233 18.4077 22.0739 18.5696C21.9148 18.7315 21.7031 18.8693 21.4389 18.983C21.1747 19.0966 20.8523 19.1534 20.4716 19.1534ZM20.625 18.25C21.0227 18.25 21.358 18.1719 21.6307 18.0156C21.9063 17.8594 22.1136 17.6577 22.2528 17.4105C22.3949 17.1634 22.4659 16.9034 22.4659 16.6307V15.7102C22.4233 15.7614 22.3295 15.8082 22.1847 15.8509C22.0426 15.8906 21.8778 15.9261 21.6903 15.9574C21.5057 15.9858 21.3253 16.0114 21.1491 16.0341C20.9759 16.054 20.8352 16.071 20.7273 16.0852C20.4659 16.1193 20.2216 16.1747 19.9943 16.2514C19.7699 16.3253 19.5881 16.4375 19.4489 16.5881C19.3125 16.7358 19.2443 16.9375 19.2443 17.1932C19.2443 17.5426 19.3736 17.8068 19.6321 17.9858C19.8935 18.1619 20.2244 18.25 20.625 18.25ZM25.3072 19V12.4545H26.2788V13.4432H26.3469C26.4663 13.1193 26.6822 12.8565 26.9947 12.6548C27.3072 12.4531 27.6594 12.3523 28.0515 12.3523C28.1254 12.3523 28.2177 12.3537 28.3285 12.3565C28.4393 12.3594 28.5231 12.3636 28.5799 12.3693V13.392C28.5458 13.3835 28.4677 13.3707 28.3455 13.3537C28.2262 13.3338 28.0998 13.3239 27.9663 13.3239C27.6481 13.3239 27.364 13.3906 27.114 13.5241C26.8668 13.6548 26.6708 13.8366 26.5259 14.0696C26.3839 14.2997 26.3129 14.5625 26.3129 14.858V19H25.3072ZM30.7095 16.6136L30.6925 15.3693H30.897L33.7607 12.4545H35.005L31.9538 15.5398H31.8686L30.7095 16.6136ZM29.772 19V10.2727H30.7777V19H29.772ZM33.9311 19L31.3743 15.7614L32.0902 15.0625L35.2095 19H33.9311Z" fill="#555555"/>
<path d="M49 21.75C47.125 21.75 45.5312 21.0938 44.2188 19.7812C42.9062 18.4688 42.25 16.875 42.25 15C42.25 13.125 42.9062 11.5312 44.2188 10.2188C45.5312 8.90625 47.125 8.25 49 8.25C49.175 8.25 49.347 8.25625 49.516 8.26875C49.6845 8.28125 49.85 8.3 50.0125 8.325C49.5 8.6875 49.0908 9.15925 48.7847 9.74025C48.4783 10.3217 48.325 10.95 48.325 11.625C48.325 12.75 48.7188 13.7062 49.5063 14.4937C50.2937 15.2812 51.25 15.675 52.375 15.675C53.0625 15.675 53.6937 15.5217 54.2687 15.2153C54.8438 14.9092 55.3125 14.5 55.675 13.9875C55.7 14.15 55.7188 14.3155 55.7313 14.484C55.7438 14.653 55.75 14.825 55.75 15C55.75 16.875 55.0938 18.4688 53.7812 19.7812C52.4688 21.0938 50.875 21.75 49 21.75ZM49 20.25C50.1 20.25 51.0875 19.947 51.9625 19.341C52.8375 18.7345 53.475 17.9438 53.875 16.9688C53.625 17.0312 53.375 17.0813 53.125 17.1187C52.875 17.1562 52.625 17.175 52.375 17.175C50.8375 17.175 49.528 16.6345 48.4465 15.5535C47.3655 14.472 46.825 13.1625 46.825 11.625C46.825 11.375 46.8438 11.125 46.8813 10.875C46.9188 10.625 46.9688 10.375 47.0312 10.125C46.0563 10.525 45.2657 11.1625 44.6597 12.0375C44.0532 12.9125 43.75 13.9 43.75 15C43.75 16.45 44.2625 17.6875 45.2875 18.7125C46.3125 19.7375 47.55 20.25 49 20.25Z" fill="#555555"/>
<path d="M73.0568 19V10.2727H74.1136V18.0625H78.1705V19H73.0568ZM79.6705 19V12.4545H80.6761V19H79.6705ZM80.1818 11.3636C79.9858 11.3636 79.8168 11.2969 79.6747 11.1634C79.5355 11.0298 79.4659 10.8693 79.4659 10.6818C79.4659 10.4943 79.5355 10.3338 79.6747 10.2003C79.8168 10.0668 79.9858 10 80.1818 10C80.3778 10 80.5455 10.0668 80.6847 10.2003C80.8267 10.3338 80.8977 10.4943 80.8977 10.6818C80.8977 10.8693 80.8267 11.0298 80.6847 11.1634C80.5455 11.2969 80.3778 11.3636 80.1818 11.3636ZM85.1602 21.5909C84.6744 21.5909 84.2567 21.5284 83.9073 21.4034C83.5579 21.2812 83.2667 21.1193 83.0337 20.9176C82.8036 20.7188 82.6204 20.5057 82.484 20.2784L83.2852 19.7159C83.3761 19.8352 83.4911 19.9716 83.6303 20.125C83.7695 20.2812 83.9599 20.4162 84.2013 20.5298C84.4457 20.6463 84.7653 20.7045 85.1602 20.7045C85.6886 20.7045 86.1246 20.5767 86.4684 20.321C86.8121 20.0653 86.984 19.6648 86.984 19.1193V17.7898H86.8988C86.8249 17.9091 86.7198 18.0568 86.5835 18.233C86.4499 18.4062 86.2567 18.5611 86.0039 18.6974C85.7539 18.831 85.4158 18.8977 84.9897 18.8977C84.4613 18.8977 83.9869 18.7727 83.5664 18.5227C83.1488 18.2727 82.8178 17.9091 82.5735 17.4318C82.332 16.9545 82.2113 16.375 82.2113 15.6932C82.2113 15.0227 82.3292 14.4389 82.565 13.9418C82.8008 13.4418 83.1289 13.0554 83.5494 12.7827C83.9698 12.5071 84.4556 12.3693 85.0067 12.3693C85.4329 12.3693 85.771 12.4403 86.021 12.5824C86.2738 12.7216 86.467 12.8807 86.6005 13.0597C86.7369 13.2358 86.842 13.3807 86.9158 13.4943H87.0181V12.4545H87.9897V19.1875C87.9897 19.75 87.8619 20.2074 87.6062 20.5597C87.3533 20.9148 87.0124 21.1747 86.5835 21.3395C86.1573 21.5071 85.6829 21.5909 85.1602 21.5909ZM85.1261 17.9943C85.5295 17.9943 85.8704 17.902 86.1488 17.7173C86.4272 17.5327 86.6388 17.267 86.7837 16.9205C86.9286 16.5739 87.0011 16.1591 87.0011 15.6761C87.0011 15.2045 86.93 14.7884 86.788 14.4276C86.646 14.0668 86.4357 13.7841 86.1573 13.5795C85.8789 13.375 85.5352 13.2727 85.1261 13.2727C84.6999 13.2727 84.3448 13.3807 84.0607 13.5966C83.7795 13.8125 83.5678 14.1023 83.4258 14.4659C83.2866 14.8295 83.217 15.233 83.217 15.6761C83.217 16.1307 83.288 16.5327 83.43 16.8821C83.5749 17.2287 83.788 17.5014 84.0692 17.7003C84.3533 17.8963 84.7056 17.9943 85.1261 17.9943ZM90.8363 15.0625V19H89.8306V10.2727H90.8363V13.4773H90.9215C91.0749 13.1392 91.305 12.8707 91.6119 12.6719C91.9215 12.4702 92.3335 12.3693 92.8477 12.3693C93.2937 12.3693 93.6843 12.4588 94.0195 12.6378C94.3548 12.8139 94.6147 13.0852 94.7994 13.4517C94.9869 13.8153 95.0806 14.2784 95.0806 14.8409V19H94.0749V14.9091C94.0749 14.3892 93.94 13.9872 93.6701 13.7031C93.4031 13.4162 93.0323 13.2727 92.5579 13.2727C92.2283 13.2727 91.9329 13.3423 91.6715 13.4815C91.413 13.6207 91.2085 13.8239 91.0579 14.0909C90.9102 14.358 90.8363 14.6818 90.8363 15.0625ZM99.767 12.4545V13.3068H96.375V12.4545H99.767ZM97.3636 10.8864H98.3693V17.125C98.3693 17.4091 98.4105 17.6222 98.4929 17.7642C98.5781 17.9034 98.6861 17.9972 98.8168 18.0455C98.9503 18.0909 99.0909 18.1136 99.2386 18.1136C99.3494 18.1136 99.4403 18.108 99.5114 18.0966C99.5824 18.0824 99.6392 18.071 99.6818 18.0625L99.8864 18.9659C99.8182 18.9915 99.723 19.017 99.6009 19.0426C99.4787 19.071 99.3239 19.0852 99.1364 19.0852C98.8523 19.0852 98.5739 19.0241 98.3011 18.902C98.0313 18.7798 97.8068 18.5938 97.6278 18.3438C97.4517 18.0938 97.3636 17.7784 97.3636 17.3977V10.8864Z" fill="#555555"/>
</svg>
