<svg width="110" height="30" viewBox="0 0 110 30" fill="none" xmlns="http://www.w3.org/2000/svg">
<rect width="110" height="30" rx="15" fill="#CCCCCC" fill-opacity="0.7"/>
<rect x="41" y="2" width="67" height="26" rx="13" fill="#F4F4F4"/>
<path d="M12.75 19H10.0568V10.2727H12.8693C13.7159 10.2727 14.4403 10.4474 15.0426 10.7969C15.6449 11.1435 16.1065 11.642 16.4276 12.2926C16.7486 12.9403 16.9091 13.7159 16.9091 14.6193C16.9091 15.5284 16.7472 16.3111 16.4233 16.9673C16.0994 17.6207 15.6278 18.1236 15.0085 18.4759C14.3892 18.8253 13.6364 19 12.75 19ZM11.1136 18.0625H12.6818C13.4034 18.0625 14.0014 17.9233 14.4759 17.6449C14.9503 17.3665 15.304 16.9702 15.5369 16.456C15.7699 15.9418 15.8864 15.3295 15.8864 14.6193C15.8864 13.9148 15.7713 13.3082 15.5412 12.7997C15.3111 12.2884 14.9673 11.8963 14.5099 11.6236C14.0526 11.348 13.483 11.2102 12.8011 11.2102H11.1136V18.0625ZM20.4716 19.1534C20.0568 19.1534 19.6804 19.0753 19.3423 18.919C19.0043 18.7599 18.7358 18.5312 18.5369 18.233C18.3381 17.9318 18.2386 17.5682 18.2386 17.142C18.2386 16.767 18.3125 16.4631 18.4602 16.2301C18.608 15.9943 18.8054 15.8097 19.0526 15.6761C19.2997 15.5426 19.5724 15.4432 19.8707 15.3778C20.1719 15.3097 20.4744 15.2557 20.7784 15.2159C21.1761 15.1648 21.4986 15.1264 21.7457 15.1009C21.9957 15.0724 22.1776 15.0256 22.2912 14.9602C22.4077 14.8949 22.4659 14.7812 22.4659 14.6193V14.5852C22.4659 14.1648 22.3509 13.8381 22.1207 13.6051C21.8935 13.3722 21.5483 13.2557 21.0852 13.2557C20.6051 13.2557 20.2287 13.3608 19.956 13.571C19.6832 13.7812 19.4915 14.0057 19.3807 14.2443L18.4261 13.9034C18.5966 13.5057 18.8239 13.196 19.108 12.9744C19.3949 12.75 19.7074 12.5937 20.0455 12.5057C20.3864 12.4148 20.7216 12.3693 21.0511 12.3693C21.2614 12.3693 21.5028 12.3949 21.7756 12.446C22.0511 12.4943 22.3168 12.5952 22.5724 12.7486C22.831 12.902 23.0455 13.1335 23.2159 13.4432C23.3864 13.7528 23.4716 14.1676 23.4716 14.6875V19H22.4659V18.1136H22.4148C22.3466 18.2557 22.233 18.4077 22.0739 18.5696C21.9148 18.7315 21.7031 18.8693 21.4389 18.983C21.1747 19.0966 20.8523 19.1534 20.4716 19.1534ZM20.625 18.25C21.0227 18.25 21.358 18.1719 21.6307 18.0156C21.9063 17.8594 22.1136 17.6577 22.2528 17.4105C22.3949 17.1634 22.4659 16.9034 22.4659 16.6307V15.7102C22.4233 15.7614 22.3295 15.8082 22.1847 15.8509C22.0426 15.8906 21.8778 15.9261 21.6903 15.9574C21.5057 15.9858 21.3253 16.0114 21.1491 16.0341C20.9759 16.054 20.8352 16.071 20.7273 16.0852C20.4659 16.1193 20.2216 16.1747 19.9943 16.2514C19.7699 16.3253 19.5881 16.4375 19.4489 16.5881C19.3125 16.7358 19.2443 16.9375 19.2443 17.1932C19.2443 17.5426 19.3736 17.8068 19.6321 17.9858C19.8935 18.1619 20.2244 18.25 20.625 18.25ZM25.3072 19V12.4545H26.2788V13.4432H26.3469C26.4663 13.1193 26.6822 12.8565 26.9947 12.6548C27.3072 12.4531 27.6594 12.3523 28.0515 12.3523C28.1254 12.3523 28.2177 12.3537 28.3285 12.3565C28.4393 12.3594 28.5231 12.3636 28.5799 12.3693V13.392C28.5458 13.3835 28.4677 13.3707 28.3455 13.3537C28.2262 13.3338 28.0998 13.3239 27.9663 13.3239C27.6481 13.3239 27.364 13.3906 27.114 13.5241C26.8668 13.6548 26.6708 13.8366 26.5259 14.0696C26.3839 14.2997 26.3129 14.5625 26.3129 14.858V19H25.3072ZM30.7095 16.6136L30.6925 15.3693H30.897L33.7607 12.4545H35.005L31.9538 15.5398H31.8686L30.7095 16.6136ZM29.772 19V10.2727H30.7777V19H29.772ZM33.9311 19L31.3743 15.7614L32.0902 15.0625L35.2095 19H33.9311Z" fill="#555555"/>
<path d="M50.0568 19V10.2727H51.1136V18.0625H55.1705V19H50.0568ZM56.6705 19V12.4545H57.6761V19H56.6705ZM57.1818 11.3636C56.9858 11.3636 56.8168 11.2969 56.6747 11.1634C56.5355 11.0298 56.4659 10.8693 56.4659 10.6818C56.4659 10.4943 56.5355 10.3338 56.6747 10.2003C56.8168 10.0668 56.9858 10 57.1818 10C57.3778 10 57.5455 10.0668 57.6847 10.2003C57.8267 10.3338 57.8977 10.4943 57.8977 10.6818C57.8977 10.8693 57.8267 11.0298 57.6847 11.1634C57.5455 11.2969 57.3778 11.3636 57.1818 11.3636ZM62.1602 21.5909C61.6744 21.5909 61.2567 21.5284 60.9073 21.4034C60.5579 21.2812 60.2667 21.1193 60.0337 20.9176C59.8036 20.7188 59.6204 20.5057 59.484 20.2784L60.2852 19.7159C60.3761 19.8352 60.4911 19.9716 60.6303 20.125C60.7695 20.2812 60.9599 20.4162 61.2013 20.5298C61.4457 20.6463 61.7653 20.7045 62.1602 20.7045C62.6886 20.7045 63.1246 20.5767 63.4684 20.321C63.8121 20.0653 63.984 19.6648 63.984 19.1193V17.7898H63.8988C63.8249 17.9091 63.7198 18.0568 63.5835 18.233C63.4499 18.4062 63.2567 18.5611 63.0039 18.6974C62.7539 18.831 62.4158 18.8977 61.9897 18.8977C61.4613 18.8977 60.9869 18.7727 60.5664 18.5227C60.1488 18.2727 59.8178 17.9091 59.5735 17.4318C59.332 16.9545 59.2113 16.375 59.2113 15.6932C59.2113 15.0227 59.3292 14.4389 59.565 13.9418C59.8008 13.4418 60.1289 13.0554 60.5494 12.7827C60.9698 12.5071 61.4556 12.3693 62.0067 12.3693C62.4329 12.3693 62.771 12.4403 63.021 12.5824C63.2738 12.7216 63.467 12.8807 63.6005 13.0597C63.7369 13.2358 63.842 13.3807 63.9158 13.4943H64.0181V12.4545H64.9897V19.1875C64.9897 19.75 64.8619 20.2074 64.6062 20.5597C64.3533 20.9148 64.0124 21.1747 63.5835 21.3395C63.1573 21.5071 62.6829 21.5909 62.1602 21.5909ZM62.1261 17.9943C62.5295 17.9943 62.8704 17.902 63.1488 17.7173C63.4272 17.5327 63.6388 17.267 63.7837 16.9205C63.9286 16.5739 64.0011 16.1591 64.0011 15.6761C64.0011 15.2045 63.93 14.7884 63.788 14.4276C63.646 14.0668 63.4357 13.7841 63.1573 13.5795C62.8789 13.375 62.5352 13.2727 62.1261 13.2727C61.6999 13.2727 61.3448 13.3807 61.0607 13.5966C60.7795 13.8125 60.5678 14.1023 60.4258 14.4659C60.2866 14.8295 60.217 15.233 60.217 15.6761C60.217 16.1307 60.288 16.5327 60.43 16.8821C60.5749 17.2287 60.788 17.5014 61.0692 17.7003C61.3533 17.8963 61.7056 17.9943 62.1261 17.9943ZM67.8363 15.0625V19H66.8306V10.2727H67.8363V13.4773H67.9215C68.0749 13.1392 68.305 12.8707 68.6119 12.6719C68.9215 12.4702 69.3335 12.3693 69.8477 12.3693C70.2937 12.3693 70.6843 12.4588 71.0195 12.6378C71.3548 12.8139 71.6147 13.0852 71.7994 13.4517C71.9869 13.8153 72.0806 14.2784 72.0806 14.8409V19H71.0749V14.9091C71.0749 14.3892 70.94 13.9872 70.6701 13.7031C70.4031 13.4162 70.0323 13.2727 69.5579 13.2727C69.2283 13.2727 68.9329 13.3423 68.6715 13.4815C68.413 13.6207 68.2085 13.8239 68.0579 14.0909C67.9102 14.358 67.8363 14.6818 67.8363 15.0625ZM76.767 12.4545V13.3068H73.375V12.4545H76.767ZM74.3636 10.8864H75.3693V17.125C75.3693 17.4091 75.4105 17.6222 75.4929 17.7642C75.5781 17.9034 75.6861 17.9972 75.8168 18.0455C75.9503 18.0909 76.0909 18.1136 76.2386 18.1136C76.3494 18.1136 76.4403 18.108 76.5114 18.0966C76.5824 18.0824 76.6392 18.071 76.6818 18.0625L76.8864 18.9659C76.8182 18.9915 76.723 19.017 76.6009 19.0426C76.4787 19.071 76.3239 19.0852 76.1364 19.0852C75.8523 19.0852 75.5739 19.0241 75.3011 18.902C75.0313 18.7798 74.8068 18.5938 74.6278 18.3438C74.4517 18.0938 74.3636 17.7784 74.3636 17.3977V10.8864Z" fill="#555555"/>
<g clip-path="url(#clip0_1711_15728)">
<path d="M91 17.25C91.625 17.25 92.1563 17.0313 92.5938 16.5938C93.0313 16.1563 93.25 15.625 93.25 15C93.25 14.375 93.0313 13.8438 92.5938 13.4063C92.1563 12.9688 91.625 12.75 91 12.75C90.375 12.75 89.8438 12.9688 89.4063 13.4063C88.9688 13.8438 88.75 14.375 88.75 15C88.75 15.625 88.9688 16.1563 89.4063 16.5938C89.8438 17.0313 90.375 17.25 91 17.25ZM91 18.75C89.9625 18.75 89.0783 18.3843 88.3473 17.6528C87.6158 16.9218 87.25 16.0375 87.25 15C87.25 13.9625 87.6158 13.078 88.3473 12.3465C89.0783 11.6155 89.9625 11.25 91 11.25C92.0375 11.25 92.922 11.6155 93.6535 12.3465C94.3845 13.078 94.75 13.9625 94.75 15C94.75 16.0375 94.3845 16.9218 93.6535 17.6528C92.922 18.3843 92.0375 18.75 91 18.75ZM82.75 15.75V14.25H85.75V15.75H82.75ZM96.25 15.75V14.25H99.25V15.75H96.25ZM90.25 9.75V6.75H91.75V9.75H90.25ZM90.25 23.25V20.25H91.75V23.25H90.25ZM86.7625 11.8125L84.9063 9.95625L85.9563 8.90625L87.8125 10.7625L86.7625 11.8125ZM96.0438 21.0938L94.1875 19.2375L95.2375 18.1875L97.0938 20.0438L96.0438 21.0938ZM95.2375 11.8125L94.1875 10.7625L96.0438 8.90625L97.0938 9.95625L95.2375 11.8125ZM85.9563 21.0938L84.9063 20.0438L86.7625 18.1875L87.8125 19.2375L85.9563 21.0938Z" fill="#555555"/>
</g>
<defs>
<clipPath id="clip0_1711_15728">
<rect width="18" height="18" fill="white" transform="translate(82 6)"/>
</clipPath>
</defs>
</svg>
