<svg width="110" height="26" viewBox="0 0 110 26" fill="none" xmlns="http://www.w3.org/2000/svg">
<rect x="0.5" y="0.5" width="109" height="25" rx="12.5" fill="#FFF7F7"/>
<path d="M26.25 8.8075L25.1925 7.75L21 11.9425L16.8075 7.75L15.75 8.8075L19.9425 13L15.75 17.1925L16.8075 18.25L21 14.0575L25.1925 18.25L26.25 17.1925L22.0575 13L26.25 8.8075Z" fill="#EB5757"/>
<path d="M46.4588 11.3281H44.5923C44.5582 11.0866 44.4886 10.8722 44.3835 10.6847C44.2784 10.4943 44.1435 10.3324 43.9787 10.1989C43.8139 10.0653 43.6236 9.96307 43.4077 9.89205C43.1946 9.82102 42.9631 9.78551 42.7131 9.78551C42.2614 9.78551 41.8679 9.89773 41.5327 10.1222C41.1974 10.3437 40.9375 10.6676 40.7528 11.0938C40.5682 11.517 40.4759 12.0312 40.4759 12.6364C40.4759 13.2585 40.5682 13.7812 40.7528 14.2045C40.9403 14.6278 41.2017 14.9474 41.5369 15.1634C41.8722 15.3793 42.2599 15.4872 42.7003 15.4872C42.9474 15.4872 43.1761 15.4545 43.3864 15.3892C43.5994 15.3239 43.7884 15.2287 43.9531 15.1037C44.1179 14.9759 44.2543 14.821 44.3622 14.6392C44.473 14.4574 44.5497 14.25 44.5923 14.017L46.4588 14.0256C46.4105 14.4261 46.2898 14.8125 46.0966 15.1847C45.9063 15.554 45.6491 15.8849 45.3253 16.1776C45.0043 16.4673 44.6207 16.6974 44.1747 16.8679C43.7315 17.0355 43.2301 17.1193 42.6705 17.1193C41.892 17.1193 41.196 16.9432 40.5824 16.5909C39.9716 16.2386 39.4886 15.7287 39.1335 15.0611C38.7812 14.3935 38.6051 13.5852 38.6051 12.6364C38.6051 11.6847 38.7841 10.875 39.142 10.2074C39.5 9.53977 39.9858 9.03125 40.5994 8.68182C41.2131 8.32955 41.9034 8.15341 42.6705 8.15341C43.1761 8.15341 43.6449 8.22443 44.0767 8.36648C44.5114 8.50852 44.8963 8.71591 45.2315 8.98864C45.5668 9.25852 45.8395 9.58949 46.0497 9.98153C46.2628 10.3736 46.3991 10.8224 46.4588 11.3281ZM49.6143 17.1236C49.1967 17.1236 48.8246 17.0511 48.4979 16.9062C48.1712 16.7585 47.9126 16.5412 47.7223 16.2543C47.5348 15.9645 47.4411 15.6037 47.4411 15.1719C47.4411 14.8082 47.5078 14.5028 47.6413 14.2557C47.7749 14.0085 47.9567 13.8097 48.1868 13.6591C48.4169 13.5085 48.6783 13.3949 48.9709 13.3182C49.2663 13.2415 49.576 13.1875 49.8999 13.1562C50.2805 13.1165 50.5874 13.0795 50.8203 13.0455C51.0533 13.0085 51.2223 12.9545 51.3274 12.8835C51.4325 12.8125 51.4851 12.7074 51.4851 12.5682V12.5426C51.4851 12.2727 51.3999 12.0639 51.2294 11.9162C51.0618 11.7685 50.8232 11.6946 50.5135 11.6946C50.1868 11.6946 49.9268 11.767 49.7337 11.9119C49.5405 12.054 49.4126 12.233 49.3501 12.4489L47.6712 12.3125C47.7564 11.9148 47.924 11.571 48.174 11.2812C48.424 10.9886 48.7464 10.7642 49.1413 10.608C49.5391 10.4489 49.9993 10.3693 50.522 10.3693C50.8857 10.3693 51.2337 10.4119 51.5661 10.4972C51.9013 10.5824 52.1982 10.7145 52.4567 10.8935C52.718 11.0724 52.924 11.3026 53.0746 11.5838C53.2251 11.8622 53.3004 12.196 53.3004 12.5852V17H51.5788V16.0923H51.5277C51.4226 16.2969 51.282 16.4773 51.1058 16.6335C50.9297 16.7869 50.718 16.9077 50.4709 16.9957C50.2237 17.081 49.9382 17.1236 49.6143 17.1236ZM50.1342 15.8707C50.4013 15.8707 50.6371 15.8182 50.8416 15.7131C51.0462 15.6051 51.2067 15.4602 51.3232 15.2784C51.4396 15.0966 51.4979 14.8906 51.4979 14.6605V13.9659C51.4411 14.0028 51.3629 14.0369 51.2635 14.0682C51.1669 14.0966 51.0575 14.1236 50.9354 14.1491C50.8132 14.1719 50.6911 14.1932 50.5689 14.2131C50.4467 14.2301 50.3359 14.2457 50.2365 14.2599C50.0234 14.2912 49.8374 14.3409 49.6783 14.4091C49.5192 14.4773 49.3956 14.5696 49.3075 14.6861C49.2195 14.7997 49.1754 14.9418 49.1754 15.1122C49.1754 15.3594 49.2649 15.5483 49.4439 15.679C49.6257 15.8068 49.8558 15.8707 50.1342 15.8707ZM56.5241 13.2159V17H54.7088V10.4545H56.4389V11.6094H56.5156C56.6605 11.2287 56.9034 10.9276 57.2443 10.706C57.5852 10.4815 57.9986 10.3693 58.4844 10.3693C58.9389 10.3693 59.3352 10.4688 59.6733 10.6676C60.0114 10.8665 60.2741 11.1506 60.4616 11.5199C60.6491 11.8864 60.7429 12.3239 60.7429 12.8324V17H58.9276V13.1562C58.9304 12.7557 58.8281 12.4432 58.6207 12.2188C58.4134 11.9915 58.1278 11.8778 57.7642 11.8778C57.5199 11.8778 57.304 11.9304 57.1165 12.0355C56.9318 12.1406 56.7869 12.294 56.6818 12.4957C56.5795 12.6946 56.527 12.9347 56.5241 13.2159ZM65.131 17.1278C64.4606 17.1278 63.8839 16.9858 63.4009 16.7017C62.9208 16.4148 62.5515 16.017 62.293 15.5085C62.0373 15 61.9094 14.4148 61.9094 13.7528C61.9094 13.0824 62.0387 12.4943 62.2972 11.9886C62.5586 11.4801 62.9293 11.0838 63.4094 10.7997C63.8896 10.5128 64.4606 10.3693 65.1225 10.3693C65.6935 10.3693 66.1935 10.473 66.6225 10.6804C67.0515 10.8878 67.391 11.179 67.641 11.554C67.891 11.929 68.0288 12.3693 68.0543 12.875H66.3413C66.293 12.5483 66.1651 12.2855 65.9577 12.0866C65.7532 11.8849 65.4847 11.7841 65.1523 11.7841C64.8711 11.7841 64.6254 11.8608 64.4151 12.0142C64.2077 12.1648 64.0458 12.3849 63.9293 12.6747C63.8129 12.9645 63.7546 13.3153 63.7546 13.7273C63.7546 14.1449 63.8114 14.5 63.9251 14.7926C64.0415 15.0852 64.2049 15.3082 64.4151 15.4616C64.6254 15.6151 64.8711 15.6918 65.1523 15.6918C65.3597 15.6918 65.5458 15.6491 65.7106 15.5639C65.8782 15.4787 66.016 15.3551 66.1239 15.1932C66.2347 15.0284 66.3072 14.831 66.3413 14.6009H68.0543C68.0259 15.1009 67.8896 15.5412 67.6452 15.9219C67.4038 16.2997 67.07 16.5952 66.6438 16.8082C66.2177 17.0213 65.7134 17.1278 65.131 17.1278ZM72.1996 17.1278C71.5263 17.1278 70.9467 16.9915 70.4609 16.7188C69.978 16.4432 69.6058 16.054 69.3445 15.5511C69.0831 15.0455 68.9524 14.4474 68.9524 13.7571C68.9524 13.0838 69.0831 12.4929 69.3445 11.9844C69.6058 11.4759 69.9737 11.0795 70.4482 10.7955C70.9254 10.5114 71.4851 10.3693 72.1271 10.3693C72.5589 10.3693 72.9609 10.4389 73.3331 10.5781C73.7081 10.7145 74.0348 10.9205 74.3132 11.196C74.5945 11.4716 74.8132 11.8182 74.9695 12.2358C75.1257 12.6506 75.2038 13.1364 75.2038 13.6932V14.1918H69.6768V13.0668H73.495C73.495 12.8054 73.4382 12.5739 73.3246 12.3722C73.2109 12.1705 73.0533 12.0128 72.8516 11.8991C72.6527 11.7827 72.4212 11.7244 72.157 11.7244C71.8814 11.7244 71.6371 11.7884 71.424 11.9162C71.2138 12.0412 71.049 12.2102 70.9297 12.4233C70.8104 12.6335 70.7493 12.8679 70.7464 13.1264V14.196C70.7464 14.5199 70.8061 14.7997 70.9254 15.0355C71.0476 15.2713 71.2195 15.4531 71.4411 15.581C71.6626 15.7088 71.9254 15.7727 72.2294 15.7727C72.4311 15.7727 72.6158 15.7443 72.7834 15.6875C72.951 15.6307 73.0945 15.5455 73.2138 15.4318C73.3331 15.3182 73.424 15.179 73.4865 15.0142L75.1655 15.125C75.0803 15.5284 74.9055 15.8807 74.6413 16.1818C74.38 16.4801 74.0419 16.7131 73.6271 16.8807C73.2152 17.0455 72.7393 17.1278 72.1996 17.1278ZM78.2038 8.27273V17H76.3885V8.27273H78.2038ZM81.4734 8.27273V17H79.658V8.27273H81.4734ZM85.9105 17.1278C85.2372 17.1278 84.6577 16.9915 84.1719 16.7188C83.6889 16.4432 83.3168 16.054 83.0554 15.5511C82.794 15.0455 82.6634 14.4474 82.6634 13.7571C82.6634 13.0838 82.794 12.4929 83.0554 11.9844C83.3168 11.4759 83.6847 11.0795 84.1591 10.7955C84.6364 10.5114 85.196 10.3693 85.8381 10.3693C86.2699 10.3693 86.6719 10.4389 87.044 10.5781C87.419 10.7145 87.7457 10.9205 88.0241 11.196C88.3054 11.4716 88.5241 11.8182 88.6804 12.2358C88.8366 12.6506 88.9148 13.1364 88.9148 13.6932V14.1918H83.3878V13.0668H87.206C87.206 12.8054 87.1491 12.5739 87.0355 12.3722C86.9219 12.1705 86.7642 12.0128 86.5625 11.8991C86.3636 11.7827 86.1321 11.7244 85.8679 11.7244C85.5923 11.7244 85.348 11.7884 85.1349 11.9162C84.9247 12.0412 84.7599 12.2102 84.6406 12.4233C84.5213 12.6335 84.4602 12.8679 84.4574 13.1264V14.196C84.4574 14.5199 84.517 14.7997 84.6364 15.0355C84.7585 15.2713 84.9304 15.4531 85.152 15.581C85.3736 15.7088 85.6364 15.7727 85.9403 15.7727C86.142 15.7727 86.3267 15.7443 86.4943 15.6875C86.6619 15.6307 86.8054 15.5455 86.9247 15.4318C87.044 15.3182 87.1349 15.179 87.1974 15.0142L88.8764 15.125C88.7912 15.5284 88.6165 15.8807 88.3523 16.1818C88.0909 16.4801 87.7528 16.7131 87.3381 16.8807C86.9261 17.0455 86.4503 17.1278 85.9105 17.1278ZM92.5114 17.1065C92.0142 17.1065 91.5639 16.9787 91.1605 16.723C90.7599 16.4645 90.4418 16.0852 90.206 15.5852C89.973 15.0824 89.8565 14.4659 89.8565 13.7358C89.8565 12.9858 89.9773 12.3622 90.2188 11.8651C90.4602 11.3651 90.7813 10.9915 91.1818 10.7443C91.5852 10.4943 92.027 10.3693 92.5071 10.3693C92.8736 10.3693 93.179 10.4318 93.4233 10.5568C93.6705 10.679 93.8693 10.8324 94.0199 11.017C94.1733 11.1989 94.2898 11.3778 94.3693 11.554H94.4247V8.27273H96.2358V17H94.446V15.9517H94.3693C94.2841 16.1335 94.1634 16.3139 94.0071 16.4929C93.8537 16.669 93.6534 16.8153 93.4062 16.9318C93.1619 17.0483 92.8636 17.1065 92.5114 17.1065ZM93.0866 15.6619C93.3793 15.6619 93.6264 15.5824 93.8281 15.4233C94.0327 15.2614 94.1889 15.0355 94.2969 14.7457C94.4077 14.456 94.4631 14.1165 94.4631 13.7273C94.4631 13.3381 94.4091 13 94.3011 12.7131C94.1932 12.4261 94.0369 12.2045 93.8324 12.0483C93.6278 11.892 93.3793 11.8139 93.0866 11.8139C92.7884 11.8139 92.5369 11.8949 92.3324 12.0568C92.1278 12.2187 91.973 12.4432 91.8679 12.7301C91.7628 13.017 91.7102 13.3494 91.7102 13.7273C91.7102 14.108 91.7628 14.4446 91.8679 14.7372C91.9759 15.027 92.1307 15.2543 92.3324 15.419C92.5369 15.581 92.7884 15.6619 93.0866 15.6619Z" fill="#EB5757"/>
<rect x="0.5" y="0.5" width="109" height="25" rx="12.5" stroke="#EB5757"/>
</svg>
