<svg width="80" height="80" viewBox="0 0 80 80" fill="none" xmlns="http://www.w3.org/2000/svg">
<rect width="80" height="80" rx="40" fill="#E4D6EF"/>
<path d="M56.6673 38.4666V39.9999C56.6653 43.594 55.5015 47.0911 53.3495 49.9696C51.1976 52.8482 48.1728 54.9541 44.7262 55.9731C41.2797 56.9921 37.5961 56.8698 34.2248 55.6242C30.8535 54.3787 27.9751 52.0768 26.0189 49.0617C24.0628 46.0467 23.1336 42.48 23.3701 38.8938C23.6066 35.3075 24.996 31.8938 27.3311 29.1617C29.6662 26.4296 32.822 24.5256 36.3276 23.7335C39.8333 22.9415 43.5011 23.3038 46.784 24.7666" stroke="#7933B1" stroke-width="3" stroke-linecap="round" stroke-linejoin="round"/>
<path d="M56.6667 26.6665L40 43.3498L35 38.3498" stroke="#7933B1" stroke-width="3" stroke-linecap="square"/>
</svg>
