<svg width="32" height="32" viewBox="0 0 32 32" fill="none" xmlns="http://www.w3.org/2000/svg">
<path d="M11.9432 22V20.2273L16.0852 16.392C16.4375 16.0511 16.733 15.7443 16.9716 15.4716C17.214 15.1989 17.3977 14.9318 17.5227 14.6705C17.6477 14.4053 17.7102 14.1193 17.7102 13.8125C17.7102 13.4716 17.6326 13.178 17.4773 12.9318C17.322 12.6818 17.1098 12.4905 16.8409 12.358C16.572 12.2216 16.267 12.1534 15.9261 12.1534C15.5701 12.1534 15.2595 12.2254 14.9943 12.3693C14.7292 12.5133 14.5246 12.7197 14.3807 12.9886C14.2367 13.2576 14.1648 13.5777 14.1648 13.9489H11.8295C11.8295 13.1875 12.0019 12.5265 12.3466 11.9659C12.6913 11.4053 13.1742 10.9716 13.7955 10.6648C14.4167 10.358 15.1326 10.2045 15.9432 10.2045C16.7765 10.2045 17.5019 10.3523 18.1193 10.6477C18.7405 10.9394 19.2235 11.3447 19.5682 11.8636C19.9129 12.3826 20.0852 12.9773 20.0852 13.6477C20.0852 14.0871 19.9981 14.5208 19.8239 14.9489C19.6534 15.3769 19.3485 15.8523 18.9091 16.375C18.4697 16.8939 17.8504 17.517 17.0511 18.2443L15.3523 19.9091V19.9886H20.2386V22H11.9432Z" fill="#AAAAAA"/>
<rect x="1" y="1" width="30" height="30" rx="15" stroke="#AAAAAA" stroke-width="2"/>
</svg>
