<svg width="32" height="32" viewBox="0 0 32 32" fill="none" xmlns="http://www.w3.org/2000/svg">
<path d="M16.2443 22.1591C15.3958 22.1591 14.6402 22.0133 13.9773 21.7216C13.3182 21.4261 12.7973 21.0208 12.4148 20.5057C12.036 19.9867 11.8409 19.3883 11.8295 18.7102H14.3068C14.322 18.9943 14.4148 19.2443 14.5852 19.4602C14.7595 19.6723 14.9905 19.8371 15.2784 19.9545C15.5663 20.072 15.8902 20.1307 16.25 20.1307C16.625 20.1307 16.9564 20.0644 17.2443 19.9318C17.5322 19.7992 17.7576 19.6155 17.9205 19.3807C18.0833 19.1458 18.1648 18.875 18.1648 18.5682C18.1648 18.2576 18.0777 17.983 17.9034 17.7443C17.733 17.5019 17.4867 17.3125 17.1648 17.1761C16.8466 17.0398 16.4678 16.9716 16.0284 16.9716H14.9432V15.1648H16.0284C16.3996 15.1648 16.7273 15.1004 17.0114 14.9716C17.2992 14.8428 17.5227 14.6648 17.6818 14.4375C17.8409 14.2064 17.9205 13.9375 17.9205 13.6307C17.9205 13.339 17.8504 13.0833 17.7102 12.8636C17.5739 12.6402 17.3807 12.4659 17.1307 12.3409C16.8845 12.2159 16.5966 12.1534 16.267 12.1534C15.9337 12.1534 15.6288 12.214 15.3523 12.3352C15.0758 12.4527 14.8542 12.6212 14.6875 12.8409C14.5208 13.0606 14.4318 13.3182 14.4205 13.6136H12.0625C12.0739 12.9432 12.2652 12.3523 12.6364 11.8409C13.0076 11.3295 13.5076 10.9299 14.1364 10.642C14.7689 10.3504 15.483 10.2045 16.2784 10.2045C17.0814 10.2045 17.7841 10.3504 18.3864 10.642C18.9886 10.9337 19.4564 11.3277 19.7898 11.8239C20.1269 12.3163 20.2936 12.8693 20.2898 13.483C20.2936 14.1345 20.0909 14.678 19.6818 15.1136C19.2765 15.5492 18.7481 15.8258 18.0966 15.9432V16.0341C18.9527 16.1439 19.6042 16.4413 20.0511 16.9261C20.5019 17.4072 20.7254 18.0095 20.7216 18.733C20.7254 19.3958 20.5341 19.9848 20.1477 20.5C19.7652 21.0152 19.2367 21.4205 18.5625 21.7159C17.8883 22.0114 17.1155 22.1591 16.2443 22.1591Z" fill="#27AE60"/>
<rect x="1" y="1" width="30" height="30" rx="15" stroke="#27AE60" stroke-width="2"/>
</svg>
