<svg width="202" height="42" viewBox="0 0 202 42" fill="none" xmlns="http://www.w3.org/2000/svg">
<rect width="202" height="42" rx="21" fill="#CCCCCC" fill-opacity="0.7"/>
<rect x="4" y="4" width="73" height="34" rx="17" fill="#7933B1"/>
<path d="M12.8849 15.8182H15.5398L18.3438 22.6591H18.4631L21.267 15.8182H23.9219V26H21.8338V19.3729H21.7493L19.1143 25.9503H17.6925L15.0575 19.348H14.973V26H12.8849V15.8182ZM29.106 26.1491C28.3337 26.1491 27.6659 25.9851 27.1025 25.657C26.5423 25.3255 26.1098 24.8648 25.8049 24.2749C25.4999 23.6816 25.3475 22.9938 25.3475 22.2116C25.3475 21.4228 25.4999 20.7334 25.8049 20.1435C26.1098 19.5502 26.5423 19.0895 27.1025 18.7614C27.6659 18.4299 28.3337 18.2642 29.106 18.2642C29.8783 18.2642 30.5444 18.4299 31.1046 18.7614C31.668 19.0895 32.1022 19.5502 32.4071 20.1435C32.7121 20.7334 32.8645 21.4228 32.8645 22.2116C32.8645 22.9938 32.7121 23.6816 32.4071 24.2749C32.1022 24.8648 31.668 25.3255 31.1046 25.657C30.5444 25.9851 29.8783 26.1491 29.106 26.1491ZM29.1159 24.5085C29.4673 24.5085 29.7606 24.4091 29.9959 24.2102C30.2312 24.008 30.4086 23.733 30.5279 23.3849C30.6505 23.0369 30.7118 22.6409 30.7118 22.1967C30.7118 21.7526 30.6505 21.3565 30.5279 21.0085C30.4086 20.6605 30.2312 20.3854 29.9959 20.1832C29.7606 19.9811 29.4673 19.88 29.1159 19.88C28.7613 19.88 28.463 19.9811 28.2211 20.1832C27.9824 20.3854 27.8018 20.6605 27.6792 21.0085C27.5598 21.3565 27.5002 21.7526 27.5002 22.1967C27.5002 22.6409 27.5598 23.0369 27.6792 23.3849C27.8018 23.733 27.9824 24.008 28.2211 24.2102C28.463 24.4091 28.7613 24.5085 29.1159 24.5085ZM36.3596 21.5852V26H34.2417V18.3636H36.2601V19.7109H36.3496C36.5186 19.2668 36.802 18.9155 37.1998 18.657C37.5975 18.3951 38.0797 18.2642 38.6465 18.2642C39.1768 18.2642 39.6391 18.3802 40.0336 18.6122C40.428 18.8442 40.7346 19.1757 40.9533 19.6065C41.1721 20.0341 41.2814 20.5445 41.2814 21.1378V26H39.1635V21.5156C39.1668 21.0483 39.0475 20.6837 38.8056 20.4219C38.5636 20.1567 38.2305 20.0241 37.8063 20.0241C37.5212 20.0241 37.2694 20.0855 37.0506 20.2081C36.8352 20.3307 36.6661 20.5097 36.5435 20.745C36.4242 20.977 36.3629 21.2571 36.3596 21.5852ZM47.0124 18.3636V19.9545H42.4137V18.3636H47.0124ZM43.4577 16.5341H45.5756V23.6534C45.5756 23.849 45.6055 24.0014 45.6651 24.1108C45.7248 24.2169 45.8076 24.2914 45.9137 24.3345C46.0231 24.3776 46.149 24.3991 46.2915 24.3991C46.391 24.3991 46.4904 24.3909 46.5898 24.3743C46.6893 24.3544 46.7655 24.3395 46.8185 24.3295L47.1516 25.9055C47.0456 25.9387 46.8964 25.9768 46.7042 26.0199C46.512 26.0663 46.2783 26.0945 46.0032 26.1044C45.4928 26.1243 45.0453 26.0563 44.6609 25.9006C44.2797 25.7448 43.9831 25.5028 43.771 25.1747C43.5588 24.8466 43.4544 24.4323 43.4577 23.9318V16.5341ZM50.674 21.5852V26H48.5561V15.8182H50.6143V19.7109H50.7038C50.8762 19.2602 51.1546 18.9072 51.5391 18.652C51.9235 18.3935 52.4058 18.2642 52.9858 18.2642C53.5161 18.2642 53.9785 18.3802 54.3729 18.6122C54.7706 18.8409 55.0788 19.1707 55.2976 19.6016C55.5197 20.0291 55.629 20.5412 55.6257 21.1378V26H53.5078V21.5156C53.5111 21.045 53.3918 20.6787 53.1499 20.4169C52.9112 20.1551 52.5765 20.0241 52.1456 20.0241C51.8572 20.0241 51.602 20.0855 51.38 20.2081C51.1612 20.3307 50.9889 20.5097 50.8629 20.745C50.7403 20.977 50.6773 21.2571 50.674 21.5852ZM59.4103 15.8182V26H57.2924V15.8182H59.4103ZM62.4144 28.8636C62.146 28.8636 61.8941 28.8421 61.6587 28.799C61.4267 28.7592 61.2345 28.7079 61.082 28.6449L61.5593 27.0639C61.8079 27.1402 62.0316 27.1816 62.2305 27.1882C62.4326 27.1948 62.6067 27.1484 62.7525 27.049C62.9016 26.9496 63.0226 26.7805 63.1154 26.5419L63.2397 26.2188L60.5004 18.3636H62.7276L64.3086 23.9716H64.3881L65.984 18.3636H68.2262L65.2582 26.8253C65.1156 27.2363 64.9218 27.5942 64.6765 27.8991C64.4345 28.2074 64.128 28.4444 63.7567 28.6101C63.3855 28.7791 62.9381 28.8636 62.4144 28.8636Z" fill="white"/>
<path d="M87.9029 15.8182H89.3148L92.1387 20.571H92.258L95.0819 15.8182H96.4938L92.8148 21.804V26H91.5819V21.804L87.9029 15.8182ZM100.051 26.1591C99.3152 26.1591 98.6805 25.9967 98.1468 25.6719C97.6165 25.3438 97.2072 24.8864 96.9189 24.2997C96.6338 23.7098 96.4913 23.0237 96.4913 22.2415C96.4913 21.4593 96.6338 20.7699 96.9189 20.1733C97.2072 19.5734 97.6083 19.1061 98.122 18.7713C98.639 18.4332 99.2422 18.2642 99.9316 18.2642C100.329 18.2642 100.722 18.3305 101.11 18.4631C101.498 18.5956 101.851 18.8111 102.169 19.1094C102.487 19.4044 102.741 19.7955 102.93 20.2827C103.118 20.7699 103.213 21.3698 103.213 22.0824V22.5795H97.3265V21.5653H102.02C102.02 21.1345 101.934 20.75 101.761 20.4119C101.592 20.0739 101.35 19.8071 101.035 19.6115C100.724 19.416 100.356 19.3182 99.9316 19.3182C99.4643 19.3182 99.06 19.4342 98.7186 19.6662C98.3805 19.8949 98.1203 20.1932 97.938 20.5611C97.7557 20.929 97.6646 21.3234 97.6646 21.7443V22.4205C97.6646 22.9972 97.764 23.486 97.9629 23.8871C98.1651 24.2848 98.4451 24.5881 98.8031 24.7969C99.161 25.0024 99.577 25.1051 100.051 25.1051C100.359 25.1051 100.638 25.062 100.886 24.9759C101.138 24.8864 101.355 24.7538 101.537 24.5781C101.72 24.3991 101.861 24.1771 101.96 23.9119L103.094 24.2301C102.974 24.6146 102.774 24.9527 102.492 25.2443C102.21 25.5327 101.862 25.758 101.448 25.9205C101.034 26.0795 100.568 26.1591 100.051 26.1591ZM107.245 26.179C106.761 26.179 106.322 26.0878 105.927 25.9055C105.533 25.7199 105.22 25.4531 104.988 25.1051C104.756 24.7538 104.64 24.3295 104.64 23.8324C104.64 23.3949 104.726 23.0402 104.898 22.7685C105.071 22.4934 105.301 22.2779 105.589 22.1222C105.878 21.9664 106.196 21.8504 106.544 21.7741C106.895 21.6946 107.248 21.6316 107.603 21.5852C108.067 21.5256 108.443 21.4808 108.731 21.451C109.023 21.4179 109.235 21.3632 109.368 21.2869C109.504 21.2107 109.572 21.0781 109.572 20.8892V20.8494C109.572 20.3589 109.437 19.9777 109.169 19.706C108.904 19.4342 108.501 19.2983 107.961 19.2983C107.401 19.2983 106.961 19.4209 106.643 19.6662C106.325 19.9115 106.101 20.1733 105.972 20.4517L104.858 20.054C105.057 19.59 105.323 19.2287 105.654 18.9702C105.989 18.7083 106.353 18.526 106.748 18.4233C107.145 18.3172 107.537 18.2642 107.921 18.2642C108.166 18.2642 108.448 18.294 108.766 18.3537C109.088 18.41 109.398 18.5277 109.696 18.7067C109.997 18.8857 110.248 19.1558 110.447 19.517C110.645 19.8783 110.745 20.3622 110.745 20.9688V26H109.572V24.9659H109.512C109.432 25.1316 109.3 25.3089 109.114 25.4979C108.929 25.6868 108.682 25.8475 108.373 25.9801C108.065 26.1127 107.689 26.179 107.245 26.179ZM107.424 25.125C107.888 25.125 108.279 25.0339 108.597 24.8516C108.919 24.6693 109.161 24.4339 109.323 24.1456C109.489 23.8572 109.572 23.554 109.572 23.2358V22.1619C109.522 22.2216 109.412 22.2763 109.243 22.326C109.078 22.3724 108.885 22.4138 108.667 22.4503C108.451 22.4834 108.241 22.5133 108.035 22.5398C107.833 22.563 107.669 22.5829 107.543 22.5994C107.238 22.6392 106.953 22.7038 106.688 22.7933C106.426 22.8795 106.214 23.0104 106.052 23.1861C105.893 23.3584 105.813 23.5937 105.813 23.892C105.813 24.2997 105.964 24.608 106.265 24.8168C106.57 25.0223 106.956 25.125 107.424 25.125ZM112.886 26V18.3636H114.02V19.517H114.099C114.239 19.1392 114.491 18.8326 114.855 18.5973C115.22 18.362 115.631 18.2443 116.088 18.2443C116.174 18.2443 116.282 18.246 116.411 18.2493C116.54 18.2526 116.638 18.2576 116.705 18.2642V19.4574C116.665 19.4474 116.574 19.4325 116.431 19.4126C116.292 19.3894 116.144 19.3778 115.989 19.3778C115.617 19.3778 115.286 19.4557 114.994 19.6115C114.706 19.764 114.477 19.9761 114.308 20.2479C114.143 20.5163 114.06 20.8229 114.06 21.1676V26H112.886ZM119.269 15.8182V26H118.095V15.8182H119.269ZM122.173 28.8636C121.974 28.8636 121.797 28.8471 121.641 28.8139C121.486 28.7841 121.378 28.7543 121.318 28.7244L121.616 27.6903C121.902 27.7633 122.153 27.7898 122.372 27.7699C122.591 27.75 122.785 27.6522 122.954 27.4766C123.126 27.3042 123.284 27.0241 123.426 26.6364L123.645 26.0398L120.821 18.3636H122.094L124.202 24.4489H124.281L126.389 18.3636H127.662L124.42 27.1136C124.275 27.508 124.094 27.8345 123.879 28.093C123.663 28.3549 123.413 28.5488 123.128 28.6747C122.846 28.8007 122.528 28.8636 122.173 28.8636ZM133.353 21.6364C133.353 20.5625 133.492 19.5753 133.77 18.6747C134.051 17.7713 134.452 16.9403 134.972 16.1818H135.858C135.654 16.4631 135.462 16.8097 135.283 17.2216C135.107 17.6307 134.952 18.081 134.819 18.5724C134.685 19.0611 134.58 19.5668 134.503 20.0895C134.429 20.6122 134.392 21.1278 134.392 21.6364C134.392 22.3125 134.458 22.9986 134.588 23.6946C134.719 24.3906 134.895 25.0369 135.117 25.6335C135.338 26.2301 135.586 26.7159 135.858 27.0909H134.972C134.452 26.3324 134.051 25.5028 133.77 24.6023C133.492 23.6989 133.353 22.7102 133.353 21.6364ZM140.393 17.2727V26H139.337V18.3807H139.286L137.155 19.7955V18.7216L139.337 17.2727H140.393ZM145.631 26.1193C145.131 26.1193 144.68 26.0199 144.28 25.821C143.879 25.6222 143.558 25.3494 143.317 25.0028C143.075 24.6562 142.943 24.2614 142.92 23.8182H143.943C143.983 24.2131 144.162 24.5398 144.48 24.7983C144.801 25.054 145.185 25.1818 145.631 25.1818C145.989 25.1818 146.307 25.098 146.585 24.9304C146.866 24.7628 147.087 24.5327 147.246 24.2401C147.408 23.9446 147.489 23.6108 147.489 23.2386C147.489 22.858 147.405 22.5185 147.237 22.2202C147.072 21.919 146.845 21.6818 146.555 21.5085C146.266 21.3352 145.935 21.2472 145.562 21.2443C145.295 21.2415 145.021 21.2827 144.74 21.3679C144.459 21.4503 144.227 21.5568 144.045 21.6875L143.057 21.5682L143.585 17.2727H148.119V18.2102H144.472L144.165 20.7841H144.216C144.395 20.642 144.619 20.5241 144.889 20.4304C145.159 20.3366 145.44 20.2898 145.733 20.2898C146.267 20.2898 146.743 20.4176 147.161 20.6733C147.581 20.9261 147.911 21.2727 148.149 21.7131C148.391 22.1534 148.511 22.6562 148.511 23.2216C148.511 23.7784 148.386 24.2756 148.136 24.7131C147.889 25.1477 147.548 25.4915 147.114 25.7443C146.679 25.9943 146.185 26.1193 145.631 26.1193ZM154.653 24.3636V23.9034C154.653 23.5852 154.718 23.294 154.849 23.0298C154.983 22.7628 155.176 22.5497 155.429 22.3906C155.684 22.2287 155.994 22.1477 156.358 22.1477C156.727 22.1477 157.037 22.2287 157.287 22.3906C157.537 22.5497 157.725 22.7628 157.853 23.0298C157.981 23.294 158.045 23.5852 158.045 23.9034V24.3636C158.045 24.6818 157.98 24.9744 157.849 25.2415C157.721 25.5057 157.531 25.7187 157.278 25.8807C157.028 26.0398 156.721 26.1193 156.358 26.1193C155.988 26.1193 155.677 26.0398 155.424 25.8807C155.172 25.7187 154.98 25.5057 154.849 25.2415C154.718 24.9744 154.653 24.6818 154.653 24.3636ZM155.522 23.9034V24.3636C155.522 24.6278 155.585 24.8651 155.71 25.0753C155.835 25.2827 156.051 25.3864 156.358 25.3864C156.656 25.3864 156.866 25.2827 156.988 25.0753C157.113 24.8651 157.176 24.6278 157.176 24.3636V23.9034C157.176 23.6392 157.116 23.4034 156.997 23.196C156.877 22.9858 156.664 22.8807 156.358 22.8807C156.059 22.8807 155.845 22.9858 155.714 23.196C155.586 23.4034 155.522 23.6392 155.522 23.9034ZM150.306 19.3693V18.9091C150.306 18.5909 150.372 18.2997 150.502 18.0355C150.636 17.7685 150.829 17.5554 151.082 17.3963C151.338 17.2344 151.647 17.1534 152.011 17.1534C152.38 17.1534 152.69 17.2344 152.94 17.3963C153.19 17.5554 153.379 17.7685 153.507 18.0355C153.635 18.2997 153.699 18.5909 153.699 18.9091V19.3693C153.699 19.6875 153.633 19.9801 153.502 20.2472C153.375 20.5114 153.184 20.7244 152.931 20.8864C152.681 21.0455 152.375 21.125 152.011 21.125C151.642 21.125 151.331 21.0455 151.078 20.8864C150.825 20.7244 150.633 20.5114 150.502 20.2472C150.372 19.9801 150.306 19.6875 150.306 19.3693ZM151.176 18.9091V19.3693C151.176 19.6335 151.238 19.8707 151.363 20.081C151.488 20.2884 151.704 20.392 152.011 20.392C152.309 20.392 152.52 20.2884 152.642 20.081C152.767 19.8707 152.829 19.6335 152.829 19.3693V18.9091C152.829 18.6449 152.77 18.4091 152.65 18.2017C152.531 17.9915 152.318 17.8864 152.011 17.8864C151.713 17.8864 151.498 17.9915 151.368 18.2017C151.24 18.4091 151.176 18.6449 151.176 18.9091ZM150.63 26L156.63 17.2727H157.602L151.602 26H150.63ZM170.846 21.6364C170.846 22.5568 170.68 23.3523 170.348 24.0227C170.015 24.6932 169.559 25.2102 168.98 25.5739C168.4 25.9375 167.738 26.1193 166.994 26.1193C166.25 26.1193 165.588 25.9375 165.008 25.5739C164.429 25.2102 163.973 24.6932 163.64 24.0227C163.308 23.3523 163.142 22.5568 163.142 21.6364C163.142 20.7159 163.308 19.9205 163.64 19.25C163.973 18.5795 164.429 18.0625 165.008 17.6989C165.588 17.3352 166.25 17.1534 166.994 17.1534C167.738 17.1534 168.4 17.3352 168.98 17.6989C169.559 18.0625 170.015 18.5795 170.348 19.25C170.68 19.9205 170.846 20.7159 170.846 21.6364ZM169.824 21.6364C169.824 20.8807 169.697 20.2429 169.444 19.723C169.194 19.2031 168.855 18.8097 168.426 18.5426C168 18.2756 167.522 18.142 166.994 18.142C166.466 18.142 165.987 18.2756 165.558 18.5426C165.132 18.8097 164.792 19.2031 164.539 19.723C164.289 20.2429 164.164 20.8807 164.164 21.6364C164.164 22.392 164.289 23.0298 164.539 23.5497C164.792 24.0696 165.132 24.4631 165.558 24.7301C165.987 24.9972 166.466 25.1307 166.994 25.1307C167.522 25.1307 168 24.9972 168.426 24.7301C168.855 24.4631 169.194 24.0696 169.444 23.5497C169.697 23.0298 169.824 22.392 169.824 21.6364ZM172.623 26V17.2727H177.856V18.2102H173.68V21.1591H177.464V22.0966H173.68V26H172.623ZM179.666 26V17.2727H184.899V18.2102H180.723V21.1591H184.507V22.0966H180.723V26H179.666ZM188.721 21.6364C188.721 22.7102 188.58 23.6989 188.299 24.6023C188.02 25.5028 187.621 26.3324 187.101 27.0909H186.215C186.419 26.8097 186.61 26.4631 186.786 26.0511C186.965 25.642 187.121 25.1932 187.255 24.7045C187.388 24.2131 187.492 23.706 187.566 23.1832C187.642 22.6577 187.681 22.142 187.681 21.6364C187.681 20.9602 187.615 20.2741 187.485 19.5781C187.354 18.8821 187.178 18.2358 186.956 17.6392C186.735 17.0426 186.488 16.5568 186.215 16.1818H187.101C187.621 16.9403 188.02 17.7713 188.299 18.6747C188.58 19.5753 188.721 20.5625 188.721 21.6364Z" fill="#555555"/>
</svg>
