<svg width="76" height="26" viewBox="0 0 76 26" fill="none" xmlns="http://www.w3.org/2000/svg">
<rect x="0.5" y="0.5" width="75" height="25" rx="12.5" fill="#F7FFFA"/>
<path d="M19.1617 17.5002L14.8867 13.2252L15.9555 12.1564L19.1617 15.3627L26.043 8.48145L27.1117 9.5502L19.1617 17.5002Z" fill="#27AE60"/>
<path d="M38.7585 17V8.27273H42.2017C42.8636 8.27273 43.4276 8.39915 43.8935 8.65199C44.3594 8.90199 44.7145 9.25 44.9588 9.69602C45.206 10.1392 45.3295 10.6506 45.3295 11.2301C45.3295 11.8097 45.2045 12.321 44.9545 12.7642C44.7045 13.2074 44.3423 13.5526 43.8679 13.7997C43.3963 14.0469 42.8253 14.1705 42.1548 14.1705H39.9602V12.6918H41.8565C42.2116 12.6918 42.5043 12.6307 42.7344 12.5085C42.9673 12.3835 43.1406 12.2116 43.2543 11.9929C43.3707 11.7713 43.429 11.517 43.429 11.2301C43.429 10.9403 43.3707 10.6875 43.2543 10.4716C43.1406 10.2528 42.9673 10.0838 42.7344 9.96449C42.5014 9.84233 42.206 9.78125 41.848 9.78125H40.6037V17H38.7585ZM48.1847 17.1236C47.767 17.1236 47.3949 17.0511 47.0682 16.9062C46.7415 16.7585 46.483 16.5412 46.2926 16.2543C46.1051 15.9645 46.0114 15.6037 46.0114 15.1719C46.0114 14.8082 46.0781 14.5028 46.2116 14.2557C46.3452 14.0085 46.527 13.8097 46.7571 13.6591C46.9872 13.5085 47.2486 13.3949 47.5412 13.3182C47.8366 13.2415 48.1463 13.1875 48.4702 13.1562C48.8509 13.1165 49.1577 13.0795 49.3906 13.0455C49.6236 13.0085 49.7926 12.9545 49.8977 12.8835C50.0028 12.8125 50.0554 12.7074 50.0554 12.5682V12.5426C50.0554 12.2727 49.9702 12.0639 49.7997 11.9162C49.6321 11.7685 49.3935 11.6946 49.0838 11.6946C48.7571 11.6946 48.4972 11.767 48.304 11.9119C48.1108 12.054 47.983 12.233 47.9205 12.4489L46.2415 12.3125C46.3267 11.9148 46.4943 11.571 46.7443 11.2812C46.9943 10.9886 47.3168 10.7642 47.7116 10.608C48.1094 10.4489 48.5696 10.3693 49.0923 10.3693C49.456 10.3693 49.804 10.4119 50.1364 10.4972C50.4716 10.5824 50.7685 10.7145 51.027 10.8935C51.2884 11.0724 51.4943 11.3026 51.6449 11.5838C51.7955 11.8622 51.8707 12.196 51.8707 12.5852V17H50.1491V16.0923H50.098C49.9929 16.2969 49.8523 16.4773 49.6761 16.6335C49.5 16.7869 49.2884 16.9077 49.0412 16.9957C48.794 17.081 48.5085 17.1236 48.1847 17.1236ZM48.7045 15.8707C48.9716 15.8707 49.2074 15.8182 49.4119 15.7131C49.6165 15.6051 49.777 15.4602 49.8935 15.2784C50.0099 15.0966 50.0682 14.8906 50.0682 14.6605V13.9659C50.0114 14.0028 49.9332 14.0369 49.8338 14.0682C49.7372 14.0966 49.6278 14.1236 49.5057 14.1491C49.3835 14.1719 49.2614 14.1932 49.1392 14.2131C49.017 14.2301 48.9062 14.2457 48.8068 14.2599C48.5938 14.2912 48.4077 14.3409 48.2486 14.4091C48.0895 14.4773 47.9659 14.5696 47.8778 14.6861C47.7898 14.7997 47.7457 14.9418 47.7457 15.1122C47.7457 15.3594 47.8352 15.5483 48.0142 15.679C48.196 15.8068 48.4261 15.8707 48.7045 15.8707ZM53.2791 17V10.4545H55.0945V17H53.2791ZM54.1911 9.6108C53.9212 9.6108 53.6896 9.52131 53.4964 9.34233C53.3061 9.16051 53.2109 8.94318 53.2109 8.69034C53.2109 8.44034 53.3061 8.22585 53.4964 8.04688C53.6896 7.86506 53.9212 7.77415 54.1911 7.77415C54.4609 7.77415 54.6911 7.86506 54.8814 8.04688C55.0746 8.22585 55.1712 8.44034 55.1712 8.69034C55.1712 8.94318 55.0746 9.16051 54.8814 9.34233C54.6911 9.52131 54.4609 9.6108 54.1911 9.6108ZM58.9606 17.1065C58.4634 17.1065 58.0131 16.9787 57.6097 16.723C57.2092 16.4645 56.891 16.0852 56.6552 15.5852C56.4222 15.0824 56.3058 14.4659 56.3058 13.7358C56.3058 12.9858 56.4265 12.3622 56.668 11.8651C56.9094 11.3651 57.2305 10.9915 57.631 10.7443C58.0344 10.4943 58.4762 10.3693 58.9563 10.3693C59.3228 10.3693 59.6282 10.4318 59.8725 10.5568C60.1197 10.679 60.3185 10.8324 60.4691 11.017C60.6225 11.1989 60.739 11.3778 60.8185 11.554H60.8739V8.27273H62.685V17H60.8952V15.9517H60.8185C60.7333 16.1335 60.6126 16.3139 60.4563 16.4929C60.3029 16.669 60.1026 16.8153 59.8555 16.9318C59.6112 17.0483 59.3129 17.1065 58.9606 17.1065ZM59.5359 15.6619C59.8285 15.6619 60.0756 15.5824 60.2773 15.4233C60.4819 15.2614 60.6381 15.0355 60.7461 14.7457C60.8569 14.456 60.9123 14.1165 60.9123 13.7273C60.9123 13.3381 60.8583 13 60.7504 12.7131C60.6424 12.4261 60.4862 12.2045 60.2816 12.0483C60.0771 11.892 59.8285 11.8139 59.5359 11.8139C59.2376 11.8139 58.9862 11.8949 58.7816 12.0568C58.5771 12.2187 58.4222 12.4432 58.3171 12.7301C58.212 13.017 58.1594 13.3494 58.1594 13.7273C58.1594 14.108 58.212 14.4446 58.3171 14.7372C58.4251 15.027 58.5799 15.2543 58.7816 15.419C58.9862 15.581 59.2376 15.6619 59.5359 15.6619Z" fill="#27AE60"/>
<rect x="0.5" y="0.5" width="75" height="25" rx="12.5" stroke="#27AE60"/>
</svg>
