<svg width="40" height="40" viewBox="0 0 40 40" fill="none" xmlns="http://www.w3.org/2000/svg">
<circle cx="20" cy="20" r="20" fill="#F5B1B1"/>
<mask id="mask0_1994_34869" style="mask-type:alpha" maskUnits="userSpaceOnUse" x="0" y="0" width="40" height="40">
<circle cx="20" cy="20" r="20" fill="#C4C4C4"/>
</mask>
<g mask="url(#mask0_1994_34869)">
<path d="M21.4874 38.4121L22.5566 44.0258" stroke="white" stroke-linecap="round"/>
<path fill-rule="evenodd" clip-rule="evenodd" d="M22.4295 33.2448C23.561 32.9707 25.9371 32.8062 26.3897 34.3414C26.8422 35.8767 26.2011 36.626 25.8239 36.8088C27.9926 38.3623 32.047 42.6756 30.9155 47.5007H19.8837V34.3414L22.4295 33.2448ZM17.3378 33.245C16.2064 32.9709 13.8303 32.8064 13.3777 34.3416C12.9251 35.8769 13.5663 36.6262 13.9434 36.809C11.7748 38.3625 7.72032 42.6758 8.85179 47.5009H19.8837V34.3416L17.3378 33.245Z" fill="#333333"/>
<path d="M21.4876 39.4815L26.2993 36.541L26.834 37.6103L21.4876 39.4815Z" fill="#1D1D1D"/>
<mask id="mask1_1994_34869" style="mask-type:alpha" maskUnits="userSpaceOnUse" x="8" y="33" width="24" height="15">
<path fill-rule="evenodd" clip-rule="evenodd" d="M22.4295 33.2448C23.561 32.9707 25.9371 32.8062 26.3897 34.3414C26.8422 35.8767 26.2011 36.626 25.8239 36.8088C27.9926 38.3623 32.047 42.6756 30.9155 47.5007H19.8837V34.3414L22.4295 33.2448ZM17.3378 33.245C16.2064 32.9709 13.8303 32.8064 13.3777 34.3416C12.9251 35.8769 13.5663 36.6262 13.9434 36.809C11.7748 38.3625 7.72032 42.6758 8.85179 47.5009H19.8837V34.3416L17.3378 33.245Z" fill="#333333"/>
</mask>
<g mask="url(#mask1_1994_34869)">
<path d="M18.28 39.4815L13.4682 36.541L12.9336 37.6103L18.28 39.4815Z" fill="#1D1D1D"/>
</g>
<path d="M18.2802 38.6787L17.2109 44.2924" stroke="white" stroke-linecap="round"/>
<rect x="16.1406" y="26.1143" width="7.48494" height="11.2274" rx="3.74247" fill="#F5B1B1"/>
<path d="M27.3673 19.699C27.3673 22.0612 27.8539 24.2434 29.7732 24.2434C31.6924 24.2434 33.5156 21.5265 33.5156 19.1643C33.5156 16.8022 32.7617 15.4219 30.8424 15.4219C28.9232 15.4219 27.3673 17.3368 27.3673 19.699Z" fill="#F5B1B1"/>
<path d="M12.3983 19.7C12.3983 22.0621 11.9117 24.2444 9.99247 24.2444C8.0732 24.2444 6.25 21.5275 6.25 19.1653C6.25 16.8031 7.00392 15.4229 8.92319 15.4229C10.8425 15.4229 12.3983 17.3378 12.3983 19.7Z" fill="#F5B1B1"/>
<rect x="9.19141" y="6.33301" width="21.3855" height="26.1973" rx="10.6928" fill="#FFD9CB"/>
<path d="M19.8828 29.3224C21.5758 29.5897 22.8233 28.7878 23.358 27.4512" stroke="#EB5757" stroke-linecap="round"/>
<rect x="19.3496" y="23.4414" width="2.13855" height="3.74247" rx="1.06928" fill="#F5B1B1"/>
<path d="M21.4531 20.0194C21.4531 18.642 22.5697 17.5254 23.9471 17.5254H25.9787C27.3561 17.5254 28.4727 18.642 28.4727 20.0194V20.5005C28.4727 22.4389 26.9013 24.0103 24.9629 24.0103C23.0245 24.0103 21.4531 22.4389 21.4531 20.5005V20.0194Z" fill="white" fill-opacity="0.3" stroke="#333333"/>
<path d="M11.2949 20.0194C11.2949 18.642 12.4115 17.5254 13.7889 17.5254H15.8205C17.1979 17.5254 18.3145 18.642 18.3145 20.0194V20.5005C18.3145 22.4389 16.7431 24.0103 14.8047 24.0103C12.8663 24.0103 11.2949 22.4389 11.2949 20.5005V20.0194Z" fill="white" fill-opacity="0.3" stroke="#333333"/>
<circle cx="13.8496" cy="20.2334" r="2" fill="#092C4C"/>
<circle cx="25.8496" cy="20.2334" r="2" fill="#092C4C"/>
<path d="M21.4863 15.1546C22.2883 14.4418 24.4803 13.4438 26.8327 15.1546" stroke="#282828" stroke-linecap="round"/>
<path d="M12.9336 15.1546C13.7356 14.4418 15.9276 13.4438 18.28 15.1546" stroke="#282828" stroke-linecap="round"/>
<path d="M11.8623 9.8078C11.2584 8.84205 8.57085 12.7481 8.57085 12.7481C8.57085 12.7481 7.76893 15.4217 8.30357 17.2929C8.83821 19.1642 9.10561 22.372 9.10561 22.372C9.10561 22.372 9.64016 18.6781 10.7094 17.5602C11.7787 16.4424 12.6585 11.0811 11.8623 9.8078Z" fill="#333333"/>
<path d="M7.58679 14.8872C12.3941 14.7073 13.7938 9.77866 15.339 8.20424C16.7125 6.76471 18.2315 7.38998 17.3731 7.01514C10.0934 4.13621 7.81571 11.0636 7.58679 14.8872Z" fill="#092C4C"/>
<path d="M27.3674 13.0155C27.9712 12.0497 31.1099 12.7478 31.1099 12.7478C31.1099 12.7478 31.9118 15.4214 31.3772 17.2927C30.8425 19.1639 30.5751 22.3717 30.5751 22.3717C30.5751 22.3717 30.0406 18.6779 28.9713 17.56C27.902 16.4421 26.5711 14.2888 27.3674 13.0155Z" fill="#333333"/>
<path d="M31.6454 14.3524C23.4044 14.1162 16.0463 9.92436 13.3973 7.85794C11.0427 5.96855 13.3973 4.51227 14.869 4.0203C27.3483 0.241702 31.253 9.33396 31.6454 14.3524Z" fill="#092C4C"/>
</g>
</svg>
