<svg width="56" height="56" viewBox="0 0 56 56" fill="none" xmlns="http://www.w3.org/2000/svg">
<rect width="56" height="56" rx="28" fill="#E4D6EF"/>
<path d="M34 36L32.6 34.6L34.175 33H30V31H34.175L32.6 29.4L34 28L38 32L34 36ZM20 33C19.45 33 18.979 32.804 18.587 32.412C18.195 32.02 17.9993 31.5493 18 31V21C18 20.45 18.196 19.979 18.588 19.587C18.98 19.195 19.4507 18.9993 20 19H33C33.55 19 34.021 19.196 34.413 19.588C34.805 19.98 35.0007 20.4507 35 21V26.1C34.8333 26.0667 34.6667 26.0417 34.5 26.025C34.3333 26.0083 34.1667 26 34 26C33.8333 26 33.6667 26.0043 33.5 26.013C33.3333 26.0217 33.1667 26.0423 33 26.075V22.4L26.4 27L20 22.425V31H28.075C28.0417 31.1667 28.021 31.3333 28.013 31.5C28.005 31.6667 28.0007 31.8333 28 32C28 32.1667 28.0083 32.3333 28.025 32.5C28.0417 32.6667 28.0667 32.8333 28.1 33H20ZM21.45 21L26.4 24.55L31.5 21H21.45Z" fill="#7933B1"/>
</svg>
