<svg width="202" height="42" viewBox="0 0 202 42" fill="none" xmlns="http://www.w3.org/2000/svg">
<rect width="202" height="42" rx="21" fill="#CCCCCC" fill-opacity="0.7"/>
<rect x="78" y="4" width="120" height="34" rx="17" fill="#7933B1"/>
<path d="M13.233 15.8182H14.7045L18.1648 24.2699H18.2841L21.7443 15.8182H23.2159V26H22.0625V18.2642H21.9631L18.7812 26H17.6676L14.4858 18.2642H14.3864V26H13.233V15.8182ZM28.6312 26.1591C27.9418 26.1591 27.3369 25.995 26.8166 25.6669C26.2995 25.3388 25.8952 24.8797 25.6035 24.2898C25.3152 23.6998 25.171 23.0104 25.171 22.2216C25.171 21.4261 25.3152 20.7318 25.6035 20.1385C25.8952 19.5452 26.2995 19.0845 26.8166 18.7564C27.3369 18.4283 27.9418 18.2642 28.6312 18.2642C29.3206 18.2642 29.9238 18.4283 30.4409 18.7564C30.9612 19.0845 31.3656 19.5452 31.6539 20.1385C31.9456 20.7318 32.0914 21.4261 32.0914 22.2216C32.0914 23.0104 31.9456 23.6998 31.6539 24.2898C31.3656 24.8797 30.9612 25.3388 30.4409 25.6669C29.9238 25.995 29.3206 26.1591 28.6312 26.1591ZM28.6312 25.1051C29.1549 25.1051 29.5858 24.9709 29.9238 24.7024C30.2619 24.4339 30.5121 24.081 30.6745 23.6435C30.8369 23.206 30.9181 22.732 30.9181 22.2216C30.9181 21.7112 30.8369 21.2356 30.6745 20.7947C30.5121 20.3539 30.2619 19.9976 29.9238 19.7259C29.5858 19.4541 29.1549 19.3182 28.6312 19.3182C28.1075 19.3182 27.6767 19.4541 27.3386 19.7259C27.0005 19.9976 26.7503 20.3539 26.5879 20.7947C26.4255 21.2356 26.3443 21.7112 26.3443 22.2216C26.3443 22.732 26.4255 23.206 26.5879 23.6435C26.7503 24.081 27.0005 24.4339 27.3386 24.7024C27.6767 24.9709 28.1075 25.1051 28.6312 25.1051ZM35.0558 21.4062V26H33.8825V18.3636H35.016V19.5568H35.1154C35.2944 19.169 35.5662 18.8575 35.9308 18.6222C36.2953 18.3835 36.766 18.2642 37.3427 18.2642C37.8597 18.2642 38.3121 18.3703 38.6999 18.5824C39.0877 18.7912 39.3893 19.1094 39.6048 19.5369C39.8202 19.9612 39.9279 20.4981 39.9279 21.1477V26H38.7546V21.2273C38.7546 20.6274 38.5988 20.16 38.2873 19.8253C37.9757 19.4872 37.5482 19.3182 37.0046 19.3182C36.6301 19.3182 36.2953 19.3994 36.0004 19.5618C35.7087 19.7242 35.4783 19.9612 35.3093 20.2727C35.1403 20.5843 35.0558 20.9621 35.0558 21.4062ZM45.3929 18.3636V19.358H41.4355V18.3636H45.3929ZM42.589 16.5341H43.7623V23.8125C43.7623 24.1439 43.8103 24.3925 43.9064 24.5582C44.0059 24.7206 44.1318 24.83 44.2843 24.8864C44.44 24.9394 44.6041 24.9659 44.7765 24.9659C44.9057 24.9659 45.0118 24.9593 45.0946 24.946C45.1775 24.9295 45.2438 24.9162 45.2935 24.9062L45.5321 25.9602C45.4526 25.9901 45.3416 26.0199 45.199 26.0497C45.0565 26.0829 44.8759 26.0994 44.6571 26.0994C44.3257 26.0994 44.0009 26.0282 43.6827 25.8857C43.3678 25.7431 43.106 25.526 42.8972 25.2344C42.6917 24.9427 42.589 24.5748 42.589 24.1307V16.5341ZM48.4952 21.4062V26H47.3219V15.8182H48.4952V19.5568H48.5946C48.7736 19.1624 49.0421 18.8492 49.4 18.6172C49.7613 18.3819 50.2419 18.2642 50.8418 18.2642C51.3622 18.2642 51.8179 18.3686 52.209 18.5774C52.6001 18.7829 52.9034 19.0994 53.1188 19.527C53.3375 19.9512 53.4469 20.4915 53.4469 21.1477V26H52.2736V21.2273C52.2736 20.6207 52.1162 20.1518 51.8013 19.8203C51.4898 19.4856 51.0572 19.3182 50.5037 19.3182C50.1193 19.3182 49.7746 19.3994 49.4696 19.5618C49.168 19.7242 48.9294 19.9612 48.7537 20.2727C48.5814 20.5843 48.4952 20.9621 48.4952 21.4062ZM56.7667 15.8182V26H55.5934V15.8182H56.7667ZM59.6713 28.8636C59.4725 28.8636 59.2952 28.8471 59.1394 28.8139C58.9836 28.7841 58.8759 28.7543 58.8162 28.7244L59.1145 27.6903C59.3996 27.7633 59.6515 27.7898 59.8702 27.7699C60.089 27.75 60.2828 27.6522 60.4519 27.4766C60.6242 27.3042 60.7817 27.0241 60.9242 26.6364L61.1429 26.0398L58.3191 18.3636H59.5918L61.6998 24.4489H61.7793L63.8873 18.3636H65.16L61.9185 27.1136C61.7727 27.508 61.592 27.8345 61.3766 28.093C61.1612 28.3549 60.9109 28.5488 60.6259 28.6747C60.3442 28.8007 60.026 28.8636 59.6713 28.8636Z" fill="#555555"/>
<path d="M86.343 15.8182H88.7543L91.076 20.2031H91.1754L93.4972 15.8182H95.9084L92.1946 22.4006V26H90.0568V22.4006L86.343 15.8182ZM98.9249 26.1491C98.1394 26.1491 97.4632 25.9901 96.8965 25.6719C96.333 25.3504 95.8989 24.8963 95.5939 24.3097C95.289 23.7197 95.1365 23.022 95.1365 22.2166C95.1365 21.4311 95.289 20.7417 95.5939 20.1484C95.8989 19.5552 96.3281 19.0928 96.8816 18.7614C97.4384 18.4299 98.0913 18.2642 98.8404 18.2642C99.3442 18.2642 99.8132 18.3454 100.247 18.5078C100.685 18.6669 101.066 18.9072 101.391 19.2287C101.719 19.5502 101.974 19.9545 102.156 20.4418C102.339 20.9257 102.43 21.4924 102.43 22.142V22.7237H95.9817V21.4112H100.436C100.436 21.1063 100.37 20.8362 100.237 20.6009C100.105 20.3655 99.9209 20.1816 99.6855 20.049C99.4535 19.9131 99.1834 19.8452 98.8752 19.8452C98.5537 19.8452 98.2686 19.9197 98.0201 20.0689C97.7748 20.2147 97.5826 20.4119 97.4434 20.6605C97.3042 20.9058 97.2329 21.1792 97.2296 21.4808V22.7287C97.2296 23.1065 97.2992 23.433 97.4384 23.7081C97.5809 23.9832 97.7814 24.1953 98.04 24.3445C98.2985 24.4936 98.6051 24.5682 98.9597 24.5682C99.195 24.5682 99.4105 24.535 99.606 24.4688C99.8016 24.4025 99.9689 24.303 100.108 24.1705C100.247 24.0379 100.353 23.8755 100.426 23.6832L102.385 23.8125C102.286 24.2831 102.082 24.6941 101.774 25.0455C101.469 25.3935 101.074 25.6652 100.59 25.8608C100.11 26.053 99.5546 26.1491 98.9249 26.1491ZM105.99 26.1442C105.502 26.1442 105.068 26.0597 104.687 25.8906C104.306 25.7183 104.004 25.4647 103.782 25.13C103.563 24.7919 103.454 24.371 103.454 23.8672C103.454 23.4429 103.532 23.0866 103.688 22.7983C103.843 22.5099 104.056 22.2779 104.324 22.1023C104.593 21.9266 104.897 21.794 105.239 21.7045C105.584 21.6151 105.945 21.5521 106.323 21.5156C106.767 21.4692 107.125 21.4261 107.396 21.3864C107.668 21.3433 107.865 21.2803 107.988 21.1974C108.111 21.1146 108.172 20.992 108.172 20.8295V20.7997C108.172 20.4848 108.073 20.2412 107.874 20.0689C107.678 19.8965 107.4 19.8104 107.039 19.8104C106.657 19.8104 106.354 19.8949 106.129 20.0639C105.903 20.2296 105.754 20.4384 105.681 20.6903L103.722 20.5312C103.822 20.0672 104.017 19.6662 104.309 19.3281C104.601 18.9867 104.977 18.7249 105.438 18.5426C105.902 18.357 106.439 18.2642 107.048 18.2642C107.473 18.2642 107.879 18.3139 108.267 18.4134C108.658 18.5128 109.004 18.6669 109.306 18.8757C109.61 19.0845 109.851 19.353 110.026 19.6811C110.202 20.0059 110.29 20.3954 110.29 20.8494V26H108.281V24.9411H108.222C108.099 25.1797 107.935 25.3902 107.73 25.5724C107.524 25.7514 107.277 25.8923 106.989 25.995C106.7 26.0945 106.367 26.1442 105.99 26.1442ZM106.596 24.6825C106.908 24.6825 107.183 24.6212 107.421 24.4986C107.66 24.3726 107.847 24.2036 107.983 23.9915C108.119 23.7794 108.187 23.5391 108.187 23.2706V22.4602C108.121 22.5033 108.03 22.5431 107.914 22.5795C107.801 22.6127 107.673 22.6442 107.531 22.674C107.388 22.7005 107.246 22.7254 107.103 22.7486C106.961 22.7685 106.831 22.7867 106.715 22.8033C106.467 22.8397 106.25 22.8977 106.064 22.9773C105.878 23.0568 105.734 23.1645 105.632 23.3004C105.529 23.433 105.477 23.5987 105.477 23.7976C105.477 24.0859 105.582 24.3063 105.791 24.4588C106.003 24.608 106.271 24.6825 106.596 24.6825ZM111.933 26V18.3636H113.986V19.696H114.066C114.205 19.2221 114.439 18.8641 114.767 18.6222C115.095 18.3769 115.473 18.2543 115.9 18.2543C116.006 18.2543 116.121 18.2609 116.243 18.2741C116.366 18.2874 116.474 18.3056 116.567 18.3288V20.2081C116.467 20.1783 116.33 20.1518 116.154 20.1286C115.978 20.1054 115.818 20.0938 115.672 20.0938C115.36 20.0938 115.082 20.1617 114.836 20.2976C114.595 20.4302 114.402 20.6158 114.26 20.8544C114.121 21.093 114.051 21.3681 114.051 21.6797V26H111.933ZM119.779 15.8182V26H117.662V15.8182H119.779ZM122.784 28.8636C122.515 28.8636 122.263 28.8421 122.028 28.799C121.796 28.7592 121.604 28.7079 121.451 28.6449L121.928 27.0639C122.177 27.1402 122.401 27.1816 122.6 27.1882C122.802 27.1948 122.976 27.1484 123.122 27.049C123.271 26.9496 123.392 26.7805 123.485 26.5419L123.609 26.2188L120.869 18.3636H123.097L124.678 23.9716H124.757L126.353 18.3636H128.595L125.627 26.8253C125.485 27.2363 125.291 27.5942 125.046 27.8991C124.804 28.2074 124.497 28.4444 124.126 28.6101C123.755 28.7791 123.307 28.8636 122.784 28.8636ZM133.353 21.6364C133.353 20.5625 133.492 19.5753 133.77 18.6747C134.051 17.7713 134.452 16.9403 134.972 16.1818H135.858C135.654 16.4631 135.462 16.8097 135.283 17.2216C135.107 17.6307 134.952 18.081 134.819 18.5724C134.685 19.0611 134.58 19.5668 134.503 20.0895C134.429 20.6122 134.392 21.1278 134.392 21.6364C134.392 22.3125 134.458 22.9986 134.588 23.6946C134.719 24.3906 134.895 25.0369 135.117 25.6335C135.338 26.2301 135.586 26.7159 135.858 27.0909H134.972C134.452 26.3324 134.051 25.5028 133.77 24.6023C133.492 23.6989 133.353 22.7102 133.353 21.6364ZM140.393 17.2727V26H139.337V18.3807H139.286L137.155 19.7955V18.7216L139.337 17.2727H140.393ZM145.631 26.1193C145.131 26.1193 144.68 26.0199 144.28 25.821C143.879 25.6222 143.558 25.3494 143.317 25.0028C143.075 24.6562 142.943 24.2614 142.92 23.8182H143.943C143.983 24.2131 144.162 24.5398 144.48 24.7983C144.801 25.054 145.185 25.1818 145.631 25.1818C145.989 25.1818 146.307 25.098 146.585 24.9304C146.866 24.7628 147.087 24.5327 147.246 24.2401C147.408 23.9446 147.489 23.6108 147.489 23.2386C147.489 22.858 147.405 22.5185 147.237 22.2202C147.072 21.919 146.845 21.6818 146.555 21.5085C146.266 21.3352 145.935 21.2472 145.562 21.2443C145.295 21.2415 145.021 21.2827 144.74 21.3679C144.459 21.4503 144.227 21.5568 144.045 21.6875L143.057 21.5682L143.585 17.2727H148.119V18.2102H144.472L144.165 20.7841H144.216C144.395 20.642 144.619 20.5241 144.889 20.4304C145.159 20.3366 145.44 20.2898 145.733 20.2898C146.267 20.2898 146.743 20.4176 147.161 20.6733C147.581 20.9261 147.911 21.2727 148.149 21.7131C148.391 22.1534 148.511 22.6562 148.511 23.2216C148.511 23.7784 148.386 24.2756 148.136 24.7131C147.889 25.1477 147.548 25.4915 147.114 25.7443C146.679 25.9943 146.185 26.1193 145.631 26.1193ZM154.653 24.3636V23.9034C154.653 23.5852 154.718 23.294 154.849 23.0298C154.983 22.7628 155.176 22.5497 155.429 22.3906C155.684 22.2287 155.994 22.1477 156.358 22.1477C156.727 22.1477 157.037 22.2287 157.287 22.3906C157.537 22.5497 157.725 22.7628 157.853 23.0298C157.981 23.294 158.045 23.5852 158.045 23.9034V24.3636C158.045 24.6818 157.98 24.9744 157.849 25.2415C157.721 25.5057 157.531 25.7187 157.278 25.8807C157.028 26.0398 156.721 26.1193 156.358 26.1193C155.988 26.1193 155.677 26.0398 155.424 25.8807C155.172 25.7187 154.98 25.5057 154.849 25.2415C154.718 24.9744 154.653 24.6818 154.653 24.3636ZM155.522 23.9034V24.3636C155.522 24.6278 155.585 24.8651 155.71 25.0753C155.835 25.2827 156.051 25.3864 156.358 25.3864C156.656 25.3864 156.866 25.2827 156.988 25.0753C157.113 24.8651 157.176 24.6278 157.176 24.3636V23.9034C157.176 23.6392 157.116 23.4034 156.997 23.196C156.877 22.9858 156.664 22.8807 156.358 22.8807C156.059 22.8807 155.845 22.9858 155.714 23.196C155.586 23.4034 155.522 23.6392 155.522 23.9034ZM150.306 19.3693V18.9091C150.306 18.5909 150.372 18.2997 150.502 18.0355C150.636 17.7685 150.829 17.5554 151.082 17.3963C151.338 17.2344 151.647 17.1534 152.011 17.1534C152.38 17.1534 152.69 17.2344 152.94 17.3963C153.19 17.5554 153.379 17.7685 153.507 18.0355C153.635 18.2997 153.699 18.5909 153.699 18.9091V19.3693C153.699 19.6875 153.633 19.9801 153.502 20.2472C153.375 20.5114 153.184 20.7244 152.931 20.8864C152.681 21.0455 152.375 21.125 152.011 21.125C151.642 21.125 151.331 21.0455 151.078 20.8864C150.825 20.7244 150.633 20.5114 150.502 20.2472C150.372 19.9801 150.306 19.6875 150.306 19.3693ZM151.176 18.9091V19.3693C151.176 19.6335 151.238 19.8707 151.363 20.081C151.488 20.2884 151.704 20.392 152.011 20.392C152.309 20.392 152.52 20.2884 152.642 20.081C152.767 19.8707 152.829 19.6335 152.829 19.3693V18.9091C152.829 18.6449 152.77 18.4091 152.65 18.2017C152.531 17.9915 152.318 17.8864 152.011 17.8864C151.713 17.8864 151.498 17.9915 151.368 18.2017C151.24 18.4091 151.176 18.6449 151.176 18.9091ZM150.63 26L156.63 17.2727H157.602L151.602 26H150.63ZM170.846 21.6364C170.846 22.5568 170.68 23.3523 170.348 24.0227C170.015 24.6932 169.559 25.2102 168.98 25.5739C168.4 25.9375 167.738 26.1193 166.994 26.1193C166.25 26.1193 165.588 25.9375 165.008 25.5739C164.429 25.2102 163.973 24.6932 163.64 24.0227C163.308 23.3523 163.142 22.5568 163.142 21.6364C163.142 20.7159 163.308 19.9205 163.64 19.25C163.973 18.5795 164.429 18.0625 165.008 17.6989C165.588 17.3352 166.25 17.1534 166.994 17.1534C167.738 17.1534 168.4 17.3352 168.98 17.6989C169.559 18.0625 170.015 18.5795 170.348 19.25C170.68 19.9205 170.846 20.7159 170.846 21.6364ZM169.824 21.6364C169.824 20.8807 169.697 20.2429 169.444 19.723C169.194 19.2031 168.855 18.8097 168.426 18.5426C168 18.2756 167.522 18.142 166.994 18.142C166.466 18.142 165.987 18.2756 165.558 18.5426C165.132 18.8097 164.792 19.2031 164.539 19.723C164.289 20.2429 164.164 20.8807 164.164 21.6364C164.164 22.392 164.289 23.0298 164.539 23.5497C164.792 24.0696 165.132 24.4631 165.558 24.7301C165.987 24.9972 166.466 25.1307 166.994 25.1307C167.522 25.1307 168 24.9972 168.426 24.7301C168.855 24.4631 169.194 24.0696 169.444 23.5497C169.697 23.0298 169.824 22.392 169.824 21.6364ZM172.623 26V17.2727H177.856V18.2102H173.68V21.1591H177.464V22.0966H173.68V26H172.623ZM179.666 26V17.2727H184.899V18.2102H180.723V21.1591H184.507V22.0966H180.723V26H179.666ZM188.721 21.6364C188.721 22.7102 188.58 23.6989 188.299 24.6023C188.02 25.5028 187.621 26.3324 187.101 27.0909H186.215C186.419 26.8097 186.61 26.4631 186.786 26.0511C186.965 25.642 187.121 25.1932 187.255 24.7045C187.388 24.2131 187.492 23.706 187.566 23.1832C187.642 22.6577 187.681 22.142 187.681 21.6364C187.681 20.9602 187.615 20.2741 187.485 19.5781C187.354 18.8821 187.178 18.2358 186.956 17.6392C186.735 17.0426 186.488 16.5568 186.215 16.1818H187.101C187.621 16.9403 188.02 17.7713 188.299 18.6747C188.58 19.5753 188.721 20.5625 188.721 21.6364Z" fill="white"/>
</svg>
